<svg width="26" height="18" viewBox="0 0 26 18" fill="none" xmlns="http://www.w3.org/2000/svg">
<path d="M25.459 3.04926C25.3118 2.5241 25.025 2.04864 24.6292 1.67343C24.2221 1.28668 23.7233 1.01003 23.1797 0.869594C21.1452 0.333344 12.9942 0.333345 12.9942 0.333345C9.59611 0.294683 6.19888 0.464725 2.82167 0.842511C2.27804 0.993325 1.78011 1.27616 1.37217 1.66584C0.971335 2.05151 0.681002 2.52709 0.529335 3.04818C0.165003 5.0109 -0.012015 7.0038 0.000668615 9.00001C-0.0123314 10.9944 0.164252 12.9867 0.529335 14.9518C0.677752 15.4708 0.967002 15.9442 1.36892 16.3266C1.77084 16.709 2.27134 16.9853 2.82167 17.1315C4.88325 17.6667 12.9942 17.6667 12.9942 17.6667C16.3966 17.7054 19.7981 17.5354 23.1797 17.1575C23.7233 17.0171 24.2221 16.7404 24.6292 16.3537C25.0249 15.9785 25.3113 15.503 25.4579 14.9778C25.8318 13.0159 26.0135 11.0222 26.0007 9.02493C26.0288 7.01925 25.8472 5.01612 25.459 3.04818V3.04926ZM10.4028 12.7093V5.29176L17.1845 9.0011L10.4028 12.7093Z" fill="#1B4379"/>
</svg>
