<svg width="24" height="24" viewBox="0 0 24 24" fill="none" xmlns="http://www.w3.org/2000/svg">
<path d="M12.0009 8.09462C9.85048 8.09462 8.0956 9.8495 8.0956 11.9999C8.0956 14.1503 9.85048 15.9052 12.0009 15.9052C14.1513 15.9052 15.9061 14.1503 15.9061 11.9999C15.9061 9.8495 14.1513 8.09462 12.0009 8.09462ZM23.7138 11.9999C23.7138 10.3827 23.7284 8.78017 23.6376 7.16591C23.5468 5.29091 23.119 3.62685 21.7479 2.25575C20.3739 0.881731 18.7128 0.456926 16.8378 0.366106C15.2206 0.275285 13.6181 0.289934 12.0038 0.289934C10.3866 0.289934 8.78407 0.275285 7.16982 0.366106C5.29482 0.456926 3.63075 0.88466 2.25966 2.25575C0.885637 3.62978 0.460832 5.29091 0.370012 7.16591C0.279192 8.7831 0.29384 10.3856 0.29384 11.9999C0.29384 13.6142 0.279192 15.2196 0.370012 16.8339C0.460832 18.7089 0.888567 20.3729 2.25966 21.744C3.63368 23.1181 5.29482 23.5429 7.16982 23.6337C8.787 23.7245 10.3895 23.7099 12.0038 23.7099C13.621 23.7099 15.2235 23.7245 16.8378 23.6337C18.7128 23.5429 20.3768 23.1151 21.7479 21.744C23.122 20.37 23.5468 18.7089 23.6376 16.8339C23.7313 15.2196 23.7138 13.6171 23.7138 11.9999V11.9999ZM12.0009 18.0087C8.67568 18.0087 5.99208 15.3251 5.99208 11.9999C5.99208 8.6747 8.67568 5.99111 12.0009 5.99111C15.3261 5.99111 18.0097 8.6747 18.0097 11.9999C18.0097 15.3251 15.3261 18.0087 12.0009 18.0087ZM18.2558 7.14833C17.4794 7.14833 16.8524 6.52138 16.8524 5.74501C16.8524 4.96864 17.4794 4.34169 18.2558 4.34169C19.0321 4.34169 19.6591 4.96864 19.6591 5.74501C19.6593 5.92936 19.6232 6.11195 19.5527 6.28231C19.4823 6.45268 19.3789 6.60747 19.2486 6.73783C19.1182 6.86818 18.9634 6.97154 18.7931 7.04198C18.6227 7.11242 18.4401 7.14856 18.2558 7.14833V7.14833Z" fill="#E7BA7A"/>
</svg>
