<svg width="80" height="80" viewBox="0 0 80 80" fill="none" xmlns="http://www.w3.org/2000/svg">
<path d="M70.4375 30H9.5625C8.65723 29.9943 7.77764 30.3006 7.07185 30.8676C6.36605 31.4345 5.87716 32.2273 5.6875 33.1125C4.66552 38.1924 4.78421 43.4358 6.03503 48.4643C7.28585 53.4927 9.63757 58.1807 12.9204 62.1898C16.2033 66.1988 20.3353 69.429 25.0183 71.647C29.7013 73.865 34.8183 75.0155 40 75.0155C45.1817 75.0155 50.2987 73.865 54.9817 71.647C59.6647 69.429 63.7967 66.1988 67.0796 62.1898C70.3624 58.1807 72.7141 53.4927 73.965 48.4643C75.2158 43.4358 75.3345 38.1924 74.3125 33.1125C74.125 32.2262 73.6367 31.432 72.9304 30.8647C72.2241 30.2974 71.3434 29.9919 70.4375 30ZM15 50C14.7528 50 14.5111 49.9267 14.3055 49.7893C14.1 49.652 13.9398 49.4567 13.8451 49.2283C13.7505 48.9999 13.7258 48.7486 13.774 48.5061C13.8222 48.2636 13.9413 48.0409 14.1161 47.8661C14.2909 47.6913 14.5137 47.5722 14.7561 47.524C14.9986 47.4758 15.2499 47.5005 15.4784 47.5951C15.7068 47.6897 15.902 47.8499 16.0393 48.0555C16.1767 48.2611 16.25 48.5027 16.25 48.75C16.25 49.0815 16.1183 49.3994 15.8839 49.6339C15.6495 49.8683 15.3315 50 15 50ZM17.6375 45C17.3903 45 17.1486 44.9267 16.943 44.7893C16.7375 44.652 16.5773 44.4567 16.4826 44.2283C16.388 43.9999 16.3633 43.7486 16.4115 43.5061C16.4597 43.2636 16.5788 43.0409 16.7536 42.8661C16.9284 42.6913 17.1512 42.5722 17.3936 42.524C17.6361 42.4758 17.8874 42.5005 18.1159 42.5951C18.3443 42.6897 18.5395 42.8499 18.6768 43.0555C18.8142 43.2611 18.8875 43.5027 18.8875 43.75C18.8875 44.0815 18.7558 44.3994 18.5214 44.6339C18.287 44.8683 17.969 45 17.6375 45ZM20 50C19.7528 50 19.5111 49.9267 19.3055 49.7893C19.1 49.652 18.9398 49.4567 18.8451 49.2283C18.7505 48.9999 18.7258 48.7486 18.774 48.5061C18.8222 48.2636 18.9413 48.0409 19.1161 47.8661C19.2909 47.6913 19.5137 47.5722 19.7561 47.524C19.9986 47.4758 20.2499 47.5005 20.4784 47.5951C20.7068 47.6897 20.902 47.8499 21.0393 48.0555C21.1767 48.2611 21.25 48.5027 21.25 48.75C21.25 49.0815 21.1183 49.3994 20.8839 49.6339C20.6495 49.8683 20.3315 50 20 50Z" fill="#E7BA7A"/>
<path d="M14.2618 19.2625L21.0618 12.5C21.147 12.4085 21.2535 12.3394 21.3718 12.2988C21.4901 12.2581 21.6165 12.2472 21.7401 12.2669C21.8636 12.2867 21.9803 12.3365 22.08 12.4121C22.1797 12.4876 22.2593 12.5865 22.3118 12.7L27.6743 23.425C27.9186 23.8977 28.2878 24.2945 28.7418 24.5721C29.1958 24.8498 29.7171 24.9978 30.2493 25H32.7493C32.8979 25.0056 33.0452 24.9708 33.1757 24.8995C33.3062 24.8282 33.415 24.7229 33.4905 24.5948C33.5661 24.4667 33.6057 24.3206 33.605 24.1719C33.6043 24.0232 33.5635 23.8774 33.4868 23.75L24.7368 6.32503C24.5595 5.97139 24.3008 5.66487 23.982 5.43067C23.6632 5.19646 23.2933 5.04125 22.9029 4.9778C22.5124 4.91435 22.1125 4.94447 21.7359 5.06568C21.3593 5.18688 21.0169 5.39572 20.7368 5.67503L10.8243 15.6375C10.3833 16.0585 10.1051 16.6216 10.0388 17.2277C9.97248 17.8337 10.1223 18.4437 10.4618 18.95C10.673 19.245 10.9459 19.4904 11.2615 19.6693C11.5771 19.8482 11.9278 19.9563 12.2894 19.986C12.651 20.0158 13.0147 19.9664 13.3553 19.8415C13.6959 19.7166 14.0052 19.519 14.2618 19.2625Z" fill="#E7BA7A"/>
<path d="M70.9757 12.775C71.2826 12.4659 71.4548 12.0481 71.4548 11.6125C71.4548 11.177 71.2826 10.7591 70.9757 10.45L69.7257 9.20001C69.4166 8.89315 68.9987 8.72095 68.5632 8.72095C68.1277 8.72095 67.7098 8.89315 67.4007 9.20001L66.7132 9.88751C66.3783 10.2229 65.9657 10.4703 65.5121 10.6077C65.0585 10.7451 64.5779 10.7682 64.1132 10.675L57.5007 9.36251C57.0759 9.28005 56.6358 9.33585 56.245 9.52174C55.8542 9.70763 55.5332 10.0138 55.3292 10.3954C55.1251 10.777 55.0486 11.214 55.111 11.6422C55.1733 12.0705 55.3713 12.4675 55.6757 12.775L67.4757 24.575C67.7833 24.8795 68.1803 25.0774 68.6085 25.1397C69.0367 25.2021 69.4737 25.1256 69.8553 24.9215C70.2369 24.7175 70.5431 24.3965 70.729 24.0057C70.9149 23.6149 70.9707 23.1748 70.8882 22.75L69.5007 16.0625C69.4075 15.5978 69.4306 15.1172 69.568 14.6636C69.7054 14.21 69.9528 13.7974 70.2882 13.4625L70.9757 12.775Z" fill="#E7BA7A"/>
<path d="M54.2004 25H55.8254C56.185 25.0005 56.5413 24.93 56.8737 24.7928C57.2062 24.6555 57.5083 24.4541 57.7629 24.2L60.6629 21.25C60.8248 21.0822 60.9153 20.8581 60.9153 20.625C60.9153 20.3918 60.8248 20.1678 60.6629 20L60.1754 19.5125C60.0076 19.3506 59.7835 19.2601 59.5504 19.2601C59.3172 19.2601 59.0931 19.3506 58.9254 19.5125L54.0004 24.4375C53.9538 24.4807 53.921 24.5366 53.9058 24.5983C53.8907 24.6599 53.894 24.7247 53.9153 24.7845C53.9365 24.8444 53.9749 24.8967 54.0256 24.935C54.0762 24.9732 54.137 24.9959 54.2004 25Z" fill="#E7BA7A"/>
</svg>
