<svg width="40" height="41" viewBox="0 0 40 41" fill="none" xmlns="http://www.w3.org/2000/svg">
<path d="M20 14.8012V5.63452" stroke="white" stroke-width="2" stroke-linecap="round" stroke-linejoin="round"/>
<path d="M20 35.6344V26.4678" stroke="white" stroke-width="2" stroke-linecap="round" stroke-linejoin="round"/>
<path d="M16.666 5.63452H23.3327" stroke="white" stroke-width="2" stroke-linecap="round" stroke-linejoin="round"/>
<path d="M16.666 35.6345H23.3327" stroke="white" stroke-width="2" stroke-linecap="round" stroke-linejoin="round"/>
<path d="M14.9509 17.7179L7.01758 13.1345" stroke="white" stroke-width="2" stroke-linecap="round" stroke-linejoin="round"/>
<path d="M32.9841 28.1346L25.0508 23.5513" stroke="white" stroke-width="2" stroke-linecap="round" stroke-linejoin="round"/>
<path d="M5.34961 16.0179L8.68294 10.2512" stroke="white" stroke-width="2" stroke-linecap="round" stroke-linejoin="round"/>
<path d="M31.3164 31.0179L34.6497 25.2512" stroke="white" stroke-width="2" stroke-linecap="round" stroke-linejoin="round"/>
<path d="M25.8327 20.6346C25.8327 21.7013 25.5493 22.6846 25.0493 23.5513C24.0327 25.3013 22.1493 26.4679 19.9993 26.4679C17.8493 26.4679 15.966 25.3013 14.9493 23.5513C14.4493 22.6846 14.166 21.7013 14.166 20.6346C14.166 19.5679 14.4493 18.5846 14.9493 17.7179C15.966 15.9679 17.8493 14.8013 19.9993 14.8013C22.1493 14.8013 24.0327 15.9679 25.0493 17.7179C25.5493 18.5846 25.8327 19.5679 25.8327 20.6346Z" stroke="white" stroke-width="2" stroke-linecap="round" stroke-linejoin="round"/>
<path d="M32.9841 13.1345L25.0508 17.7179" stroke="white" stroke-width="2" stroke-linecap="round" stroke-linejoin="round"/>
<path d="M14.9509 23.5513L7.01758 28.1346" stroke="white" stroke-width="2" stroke-linecap="round" stroke-linejoin="round"/>
<path d="M34.6497 16.0179L31.3164 10.2512" stroke="white" stroke-width="2" stroke-linecap="round" stroke-linejoin="round"/>
<path d="M8.68294 31.0179L5.34961 25.2512" stroke="white" stroke-width="2" stroke-linecap="round" stroke-linejoin="round"/>
</svg>
