<svg width="81" height="80" viewBox="0 0 81 80" fill="none" xmlns="http://www.w3.org/2000/svg">
<path d="M36.6485 15.6368L22.1415 8.38727C14.3149 4.51423 7.89648 8.45348 7.89648 17.1264V66.2511C7.89648 70.0248 11.0075 73.1034 14.8061 73.1034H39.1045C40.9056 73.1034 42.3792 71.6138 42.3792 69.7931V24.8063C42.3792 21.3305 39.7922 17.1926 36.6485 15.6368ZM30.8195 45.7935H19.4562C18.1136 45.7935 17.0002 44.668 17.0002 43.3108C17.0002 41.9536 18.1136 40.8281 19.4562 40.8281H30.8195C32.1621 40.8281 33.2755 41.9536 33.2755 43.3108C33.2755 44.668 32.1949 45.7935 30.8195 45.7935ZM30.8195 32.5524H19.4562C18.1136 32.5524 17.0002 31.4269 17.0002 30.0696C17.0002 28.7124 18.1136 27.5869 19.4562 27.5869H30.8195C32.1621 27.5869 33.2755 28.7124 33.2755 30.0696C33.2755 31.4269 32.1949 32.5524 30.8195 32.5524Z" fill="#E7BA7A"/>
<path d="M74.1034 60.6899V65.2667C74.1034 69.5928 70.4344 73.1037 65.9137 73.1037H51.0741C49.3051 73.1037 47.8965 71.7558 47.8965 70.063V63.2918C51.4017 63.6993 55.1034 62.7276 57.7568 60.6899C59.9844 62.4141 62.8344 63.4486 65.9465 63.4486C68.993 63.4486 71.843 62.4141 74.1034 60.6899Z" fill="#E7BA7A"/>
<path d="M74.1034 50.2986V50.3308C73.8413 54.5496 70.3361 57.9311 65.9465 57.9311C61.393 57.9311 57.7568 54.292 57.7568 49.8799C57.7568 54.8073 53.1379 58.7684 47.8965 57.7701V40.4762C47.8965 38.415 49.8292 36.8692 51.893 37.3201L57.7568 38.6083L59.3292 38.9625L66.012 40.4439C67.6172 40.766 69.0913 41.3135 70.3689 42.1186C70.3689 42.1508 70.4017 42.1508 70.4017 42.1508C70.7292 42.3762 71.0568 42.6339 71.3517 42.9237C72.8586 44.4051 73.8413 46.5628 74.0706 49.7189C74.0706 49.9121 74.1034 50.1054 74.1034 50.2986Z" fill="#E7BA7A"/>
</svg>
