<svg width="30" height="22" viewBox="0 0 30 22" fill="none" xmlns="http://www.w3.org/2000/svg">
<path d="M29.3758 4.1336C29.2059 3.52764 28.875 2.97903 28.4183 2.5461C27.9486 2.09986 27.373 1.78065 26.7458 1.6186C24.3983 0.999851 14.9933 0.999851 14.9933 0.999851C11.0724 0.955242 7.15256 1.15144 3.25577 1.58735C2.62851 1.76137 2.05398 2.08771 1.58327 2.53735C1.12077 2.98235 0.785771 3.5311 0.610771 4.13235C0.190388 6.39703 -0.0138635 8.69653 0.000771479 10.9999C-0.0142285 13.3011 0.189521 15.5999 0.610771 17.8674C0.782021 18.4661 1.11577 19.0124 1.57952 19.4536C2.04327 19.8949 2.62077 20.2136 3.25577 20.3824C5.63452 20.9999 14.9933 20.9999 14.9933 20.9999C18.9191 21.0445 22.844 20.8483 26.7458 20.4124C27.373 20.2503 27.9486 19.9311 28.4183 19.4849C28.8749 19.052 29.2054 18.5033 29.3745 17.8974C29.8059 15.6335 30.0156 13.3331 30.0008 11.0286C30.0332 8.71436 29.8237 6.40306 29.3758 4.13235V4.1336ZM12.0033 15.2799V6.7211L19.8283 11.0011L12.0033 15.2799Z" fill="white"/>
</svg>
