<svg width="101" height="36" viewBox="0 0 101 36" fill="none" xmlns="http://www.w3.org/2000/svg">
<g clip-path="url(#clip0_538_2799)">
<path d="M8.54743 26.4085H11.2996C11.9983 26.4085 12.6064 26.6671 13.0932 27.1755C13.6001 27.6641 13.8623 28.2795 13.8623 28.9913V35.5002H10.502V29.3013H3.86039V35.5002H0.5V20.0029H3.86039V27.17L10.9761 20.0029H15.3936L8.54743 26.4085Z" fill="white"/>
<path fill-rule="evenodd" clip-rule="evenodd" d="M27.096 29.301H23.9045V26.9395H20.713V35.4999H17.5215V24.1353H20.713V24.8806L21.4805 24.1353H24.4364C25.1653 24.1353 25.7977 24.3967 26.302 24.9064C26.8267 25.396 27.096 26.0103 27.096 26.7181V29.301Z" fill="white"/>
<path fill-rule="evenodd" clip-rule="evenodd" d="M29.5933 34.767C30.086 35.2521 30.6854 35.4999 31.3659 35.4999H35.8335L36.8636 34.595V35.4999H39.8623V26.7181C39.8623 26.0103 39.6093 25.396 39.1163 24.9064C38.6425 24.3967 38.0482 24.1353 37.3633 24.1353H30.8733L28.1602 26.9395H36.8636V28.2679H31.3659C30.6777 28.2679 30.0756 28.5315 29.5845 29.039C29.1074 29.5322 28.867 30.1469 28.867 30.8507V32.917C28.867 33.6204 29.1067 34.2399 29.576 34.7492L29.5844 34.7583L29.5933 34.767ZM31.8657 31.0426V32.6956H36.8636V29.7266L35.5688 31.0426H31.8657Z" fill="white"/>
<path fill-rule="evenodd" clip-rule="evenodd" d="M52.6285 17.9365L49.7652 20.7408H45.0537V24.6476L45.581 24.1354H52.3321L49.4687 26.9397H45.0537V35.5001H41.9902V20.5194C41.9902 19.8073 42.2433 19.19 42.7365 18.6989C43.2434 18.1942 43.8596 17.9365 44.5596 17.9365H52.6285Z" fill="white"/>
<path fill-rule="evenodd" clip-rule="evenodd" d="M62.2028 35.5002H57.6734C56.9915 35.5002 56.3897 35.2651 55.8937 34.8024L55.8849 34.7942L55.8764 34.7855C55.4035 34.2992 55.1607 33.7062 55.1607 33.0315V27.3181H51.5645L54.3013 24.6378H55.1607V22.9497L58.1695 20.0029V24.6378H62.2028V27.3181H58.1695V32.8199H62.2028V35.5002Z" fill="white"/>
<path d="M72.8407 26.9395H67.5216V35.4999H64.3301V24.1353H67.5216V24.8806L68.2891 24.1353H73.3726C74.1015 24.1353 74.734 24.3967 75.2382 24.9063C75.763 25.396 76.0322 26.0103 76.0322 26.7181V35.4999H72.8407V26.9395Z" fill="white"/>
<path fill-rule="evenodd" clip-rule="evenodd" d="M77.8687 34.767C78.3931 35.2521 79.0311 35.4999 79.7553 35.4999H88.7978V32.6956H80.2872V31.3673H86.3586L88.7978 28.9984V26.7181C88.7978 26.0103 88.5286 25.396 88.0038 24.9063C87.4996 24.3967 86.8671 24.1353 86.1382 24.1353H79.7553C79.0228 24.1353 78.382 24.3989 77.8594 24.9064C77.3516 25.3996 77.0957 26.0143 77.0957 26.7181V32.917C77.0957 33.6204 77.3509 34.2399 77.8503 34.7492L77.8593 34.7583L77.8687 34.767ZM85.6063 28.563V26.9395H80.2872V29.8988L81.6626 28.563H85.6063Z" fill="white"/>
<path fill-rule="evenodd" clip-rule="evenodd" d="M100.5 35.5002H95.9703C95.2883 35.5002 94.6866 35.2651 94.1906 34.8024L94.1817 34.7942L94.1733 34.7855C93.7004 34.2992 93.4575 33.7062 93.4575 33.0315V27.3181H89.8613L92.5981 24.6378H93.4575V22.9497L96.4664 20.0029V24.6378H100.5V27.3181H96.4664V32.8199H100.5V35.5002Z" fill="white"/>
</g>
<path d="M8.44602 1.3832V2.61432C8.09046 2.25747 7.70379 1.98092 7.28602 1.78465C6.77935 1.5527 6.26824 1.43672 5.75268 1.43672C4.73046 1.43672 3.87713 1.79803 3.19268 2.52065C2.51713 3.23434 2.17935 4.11308 2.17935 5.15685C2.17935 6.28092 2.54824 7.16858 3.28602 7.81982C4.03268 8.47107 4.85935 8.79669 5.76602 8.79669C6.3349 8.79669 6.88602 8.65841 7.41935 8.38186C7.79268 8.19451 8.1349 7.94472 8.44602 7.63248V8.8636C7.63713 9.44348 6.74379 9.73342 5.76602 9.73342C4.45046 9.73342 3.35268 9.29182 2.47268 8.40862C1.60157 7.52543 1.16602 6.43704 1.16602 5.14347C1.16602 3.81422 1.60602 2.70799 2.48602 1.82479C3.3749 0.941598 4.48602 0.5 5.81935 0.5C6.79713 0.5 7.67268 0.794399 8.44602 1.3832Z" fill="white"/>
<path d="M10.4258 4.0194H14.3191V8.68964H15.1458V11.0448H14.2658V9.57283H10.0525V11.0448H9.17247V8.68964C9.6347 8.68072 9.97692 8.43985 10.1991 7.96702C10.3503 7.65478 10.4258 7.16412 10.4258 6.49503V4.0194ZM13.3591 8.68964V4.9026H11.3858V6.99016C11.3858 7.73061 11.1636 8.29711 10.7191 8.68964H13.3591Z" fill="white"/>
<path d="M20.2653 7.71277L21.0653 8.15437C20.8786 8.51122 20.652 8.81008 20.3853 9.05095C19.8786 9.50593 19.2653 9.73342 18.5453 9.73342C17.7986 9.73342 17.1542 9.49255 16.612 9.0108C16.0786 8.52014 15.812 7.79306 15.812 6.82957C15.812 5.98206 16.052 5.28175 16.532 4.72864C17.0208 4.1666 17.6742 3.88559 18.492 3.88559C19.4164 3.88559 20.1142 4.22459 20.5853 4.9026C20.9586 5.43787 21.132 6.13372 21.1053 6.99016H16.7986C16.8075 7.55219 16.9808 8.00717 17.3186 8.35509C17.6564 8.70302 18.0697 8.87698 18.5586 8.87698C18.9942 8.87698 19.372 8.74317 19.692 8.47553C19.9408 8.26142 20.132 8.00717 20.2653 7.71277ZM16.8653 6.18725H20.1186C20.0386 5.75011 19.8475 5.40219 19.5453 5.14347C19.252 4.87584 18.9008 4.74202 18.492 4.74202C18.092 4.74202 17.7364 4.8803 17.4253 5.15685C17.1231 5.42449 16.9364 5.76795 16.8653 6.18725Z" fill="white"/>
<path d="M26.7646 4.0194V9.57283H25.8046V4.9026H23.8312V7.40499C23.8312 8.1276 23.689 8.66288 23.4046 9.0108C23.0846 9.40333 22.6401 9.5996 22.0712 9.5996C22.0001 9.5996 21.9023 9.59068 21.7779 9.57283V8.68964C21.8668 8.70748 21.9379 8.7164 21.9912 8.7164C22.3023 8.7164 22.5334 8.59597 22.6846 8.35509C22.809 8.15883 22.8712 7.84213 22.8712 7.40499V4.0194H26.7646Z" fill="white"/>
<path d="M32.8205 4.80893V4.0194H33.7805V9.57283H32.8205V8.79669C32.3405 9.42118 31.7094 9.73342 30.9272 9.73342C30.1805 9.73342 29.5449 9.4747 29.0205 8.95727C28.4961 8.43985 28.2338 7.71723 28.2338 6.78943C28.2338 5.87947 28.4916 5.17024 29.0072 4.66173C29.5316 4.1443 30.1716 3.88559 30.9272 3.88559C31.7272 3.88559 32.3583 4.19337 32.8205 4.80893ZM31.0338 4.74202C30.5272 4.74202 30.0961 4.9249 29.7405 5.29067C29.3938 5.64752 29.2205 6.1471 29.2205 6.78943C29.2205 7.40499 29.3805 7.90904 29.7005 8.30157C30.0294 8.68518 30.4738 8.87698 31.0338 8.87698C31.5938 8.87698 32.0383 8.67626 32.3672 8.2748C32.7049 7.87335 32.8738 7.38269 32.8738 6.80281C32.8738 6.14264 32.6872 5.63414 32.3138 5.27729C31.9405 4.92044 31.5138 4.74202 31.0338 4.74202Z" fill="white"/>
<path d="M35.5987 9.57283V4.0194H36.5587V6.2943H39.1721V4.0194H40.1321V9.57283H39.1721V7.1775H36.5587V9.57283H35.5987Z" fill="white"/>
<path d="M46.6199 8.90375C46.0688 9.45686 45.371 9.73342 44.5265 9.73342C43.6821 9.73342 42.9799 9.45686 42.4199 8.90375C41.8688 8.35063 41.5932 7.65478 41.5932 6.81619C41.5932 5.96868 41.8688 5.26837 42.4199 4.71526C42.9799 4.16214 43.6821 3.88559 44.5265 3.88559C45.371 3.88559 46.0688 4.16214 46.6199 4.71526C47.1799 5.26837 47.4599 5.96868 47.4599 6.81619C47.4599 7.65478 47.1799 8.35063 46.6199 8.90375ZM45.8999 5.29067C45.5265 4.9249 45.0688 4.74202 44.5265 4.74202C43.9843 4.74202 43.5221 4.92936 43.1399 5.30405C42.7665 5.66982 42.5799 6.17387 42.5799 6.81619C42.5799 7.45852 42.771 7.96256 43.1532 8.32833C43.5354 8.6941 43.9932 8.87698 44.5265 8.87698C45.0599 8.87698 45.5176 8.6941 45.8999 8.32833C46.2821 7.96256 46.4732 7.45852 46.4732 6.81619C46.4732 6.16495 46.2821 5.65644 45.8999 5.29067Z" fill="white"/>
<path d="M52.044 4.0194H54.1374C54.644 4.0194 55.0307 4.12646 55.2974 4.34057C55.6174 4.59928 55.7774 4.94721 55.7774 5.38434C55.7774 5.86609 55.5774 6.23632 55.1774 6.49503C55.4529 6.5664 55.684 6.6913 55.8707 6.86972C56.164 7.1552 56.3107 7.51204 56.3107 7.94026C56.3107 8.47553 56.1196 8.89483 55.7374 9.19815C55.4085 9.44794 54.9729 9.57283 54.4307 9.57283H52.044V4.0194ZM53.004 6.28092H54.0174C54.2751 6.28092 54.4796 6.22739 54.6307 6.12034C54.8085 5.98652 54.8974 5.79472 54.8974 5.54492C54.8974 5.3219 54.8085 5.14347 54.6307 5.00965C54.4974 4.92044 54.2396 4.87584 53.8574 4.87584H53.004V6.28092ZM53.004 8.7164H54.1907C54.5996 8.7164 54.8885 8.65395 55.0574 8.52906C55.2707 8.36848 55.3774 8.16329 55.3774 7.9135C55.3774 7.64586 55.284 7.43621 55.0974 7.28455C54.9285 7.15074 54.6396 7.08383 54.2307 7.08383H53.004V8.7164Z" fill="white"/>
<defs>
<clipPath id="clip0_538_2799">
<rect width="100" height="17.5636" fill="white" transform="translate(0.5 17.9365)"/>
</clipPath>
</defs>
</svg>
