<svg width="307" height="307" viewBox="0 0 307 307" fill="none" xmlns="http://www.w3.org/2000/svg">
<path d="M153.5 0C68.8645 0 0 68.8645 0 153.5C0 238.136 68.8645 307 153.5 307C238.136 307 307 238.136 307 153.5C307 68.8645 238.136 0 153.5 0ZM272.977 243.506L262.452 216.436L291.229 212.01C286.444 223.214 280.307 233.791 272.955 243.506H272.977ZM292.936 207.8L259.437 212.909C259.149 212.955 258.875 213.064 258.634 213.23C258.394 213.395 258.194 213.612 258.048 213.865C257.903 214.116 257.816 214.397 257.794 214.687C257.772 214.976 257.816 215.267 257.923 215.537L270.167 247.034C267.36 250.538 264.398 253.91 261.28 257.15L240.502 203.737L297.248 195.01C295.989 199.349 294.544 203.597 292.913 207.754L292.936 207.8ZM247.034 270.167L215.537 257.923C215.267 257.816 214.976 257.772 214.687 257.794C214.397 257.816 214.116 257.903 213.865 258.048C213.612 258.194 213.395 258.394 213.23 258.634C213.064 258.875 212.955 259.149 212.909 259.437L207.754 292.913C203.589 294.544 199.341 295.989 195.01 297.248L203.737 240.502L257.161 261.28C253.907 264.398 250.531 267.36 247.034 270.167ZM243.506 272.955C233.788 280.283 223.211 286.397 212.01 291.161L216.436 262.384L243.506 272.955ZM176.269 301.402L155.059 274.969C154.868 274.755 154.634 274.584 154.372 274.466C154.11 274.349 153.827 274.289 153.54 274.289C153.253 274.289 152.969 274.349 152.708 274.466C152.446 274.584 152.212 274.755 152.021 274.969L130.811 301.402C126.35 300.719 121.954 299.839 117.623 298.762L153.546 253.986L189.468 298.762C185.114 299.854 180.699 300.726 176.223 301.379L176.269 301.402ZM99.28 292.936L94.0913 259.437C94.0455 259.149 93.9359 258.875 93.7705 258.634C93.6051 258.394 93.3882 258.194 93.1355 258.048C92.8842 257.903 92.6032 257.816 92.3135 257.794C92.0238 257.772 91.7329 257.816 91.4628 257.923L59.9663 270.167C56.4616 267.36 53.0897 264.398 49.8505 261.28L103.263 240.502L111.99 297.248C107.659 295.989 103.407 294.544 99.2345 292.913L99.28 292.936ZM95.0812 291.229C83.8803 286.465 73.3031 280.351 63.5847 273.023L90.6549 262.498L95.0812 291.229ZM15.7938 211.964L44.5708 216.391L34.0454 243.506C26.6978 233.776 20.5684 223.183 15.7938 211.964ZM49.0768 215.537C49.1713 215.273 49.2071 214.992 49.1816 214.713C49.156 214.434 49.0698 214.164 48.9288 213.921C48.7833 213.669 48.5831 213.452 48.3429 213.286C48.1027 213.121 47.8286 213.011 47.5406 212.966L14.0528 207.811C12.437 203.646 10.9957 199.398 9.72888 195.067L66.4636 203.794L45.72 257.161C42.6022 253.914 39.6399 250.542 36.8332 247.045L49.0768 215.537ZM3.89155 153.5C3.90273 147.414 4.28272 141.334 5.02943 135.294L27.787 153.5L5.02943 171.706C4.28272 165.666 3.90273 159.586 3.89155 153.5ZM32.0541 155.013C32.2808 154.832 32.4639 154.601 32.5899 154.339C32.7159 154.077 32.7817 153.791 32.7823 153.5C32.7809 153.208 32.7149 152.92 32.589 152.656C32.4631 152.392 32.2804 152.16 32.0541 151.975L5.62113 130.765C6.30386 126.305 7.18382 121.909 8.26101 117.577L53.0366 153.5L8.26101 189.423C7.1914 185.099 6.31144 180.699 5.62113 176.223L32.0541 155.013ZM34.0454 63.5392L44.5708 90.6094L15.7938 95.0357C20.5717 83.8325 26.701 73.2552 34.0454 63.5392ZM14.087 99.2345L47.5634 94.0913C47.8473 94.0423 48.1169 93.9312 48.3529 93.766C48.589 93.6008 48.7856 93.3855 48.9288 93.1355C49.0747 92.8842 49.1617 92.6032 49.1834 92.3135C49.2051 92.0238 49.1609 91.7329 49.054 91.4628L36.8332 59.9663C39.6475 56.4616 42.6098 53.0897 45.72 49.8505L66.4863 103.263L9.75163 111.99C11.0185 107.659 12.4636 103.407 14.087 99.2345ZM59.9663 36.8332L91.4628 49.0768C91.6871 49.1667 91.9266 49.2131 92.1683 49.2133C92.6324 49.211 93.0806 49.0438 93.4328 48.7415C93.7851 48.4393 94.0184 48.0218 94.0913 47.5634L99.2459 14.087C103.411 12.456 107.659 11.0109 111.99 9.75163L103.263 66.4863L49.8505 45.72C53.0897 42.6022 56.4616 39.6399 59.9663 36.8332ZM63.5392 34.0454C73.2576 26.7169 83.8348 20.6029 95.0357 15.8393L90.6094 44.5708L63.5392 34.0454ZM130.765 5.59837L151.975 32.0313C152.16 32.2577 152.392 32.4404 152.656 32.5663C152.92 32.6922 153.208 32.7582 153.5 32.7596C153.791 32.7589 154.077 32.6932 154.339 32.5671C154.601 32.4411 154.832 32.258 155.013 32.0313L176.223 5.62113C180.699 6.30385 185.099 7.18382 189.423 8.26101L153.5 53.0366L117.577 8.26101C121.878 7.1914 126.274 6.31144 130.765 5.62113V5.59837ZM207.754 14.0528L212.909 47.5406C212.982 47.999 213.215 48.4166 213.567 48.7188C213.919 49.021 214.368 49.1882 214.832 49.1905C215.073 49.1903 215.313 49.144 215.537 49.054L247.034 36.8332C250.538 39.6475 253.91 42.6098 257.15 45.72L203.737 66.4863L195.01 9.75163C199.349 11.0185 203.597 12.4598 207.754 14.0756V14.0528ZM211.964 15.771C223.165 20.5347 233.742 26.6486 243.461 33.9771L216.391 44.5025L211.964 15.771ZM291.206 95.013L262.429 90.5866L272.955 63.5165C280.301 73.2396 286.43 83.8246 291.206 95.0357V95.013ZM257.923 91.44C257.816 91.7102 257.772 92.001 257.794 92.2907C257.816 92.5804 257.903 92.8615 258.048 93.1127C258.194 93.3654 258.394 93.5823 258.634 93.7477C258.875 93.9131 259.149 94.0227 259.437 94.0685L292.913 99.2118C294.544 103.392 295.989 107.643 297.248 111.967L240.502 103.24L261.28 49.8278C264.398 53.0669 267.36 56.4388 270.167 59.9435L257.923 91.44ZM153.5 248.911C128.208 248.884 103.959 238.826 86.072 220.944C68.1855 203.062 58.1219 178.815 58.0888 153.523C58.0888 128.218 68.141 103.95 86.0341 86.0568C103.927 68.1637 128.195 58.1115 153.5 58.1115C178.805 58.1115 203.073 68.1637 220.966 86.0568C238.859 103.95 248.911 128.218 248.911 153.523C248.878 178.815 238.815 203.062 220.928 220.944C203.041 238.826 178.792 248.884 153.5 248.911ZM248.877 125.815C247.017 119.422 244.512 113.235 241.401 107.348L290.034 114.823L248.877 125.815ZM225.118 84.7834L255.261 54.6182L237.419 100.463C233.854 94.8381 229.733 89.5851 225.118 84.7834ZM222.217 81.9274C217.415 77.3126 212.162 73.1917 206.537 69.6269L252.405 51.7849L222.217 81.9274ZM181.185 58.1229L192.177 16.9658L199.652 65.5988C193.765 62.4882 187.578 59.9834 181.185 58.1229ZM177.213 57.0647C170.751 55.4735 164.144 54.5395 157.494 54.2769L188.274 15.9303L177.213 57.0647ZM129.787 57.0647L118.726 15.9303L149.449 54.2882C142.818 54.5509 136.231 55.4811 129.787 57.0647ZM125.815 58.1229C119.424 59.9845 113.237 62.4853 107.348 65.5874L114.823 16.9658L125.815 58.1229ZM84.7835 81.9274L54.6182 51.7394L100.463 69.5814C94.8361 73.1606 89.583 77.2967 84.7835 81.9274ZM81.9274 84.7834C77.2967 89.583 73.1606 94.8361 69.5814 100.463L51.7394 54.6182L81.9274 84.7834ZM58.1229 125.815L16.9658 114.823L65.5988 107.348C62.4882 113.235 59.9834 119.422 58.1229 125.815ZM57.0647 129.787C55.4735 136.249 54.5395 142.856 54.2769 149.506L15.9303 118.726L57.0647 129.787ZM54.2769 157.494C54.5395 164.144 55.4735 170.751 57.0647 177.213L15.9303 188.274L54.2769 157.494ZM58.1229 181.185C59.9834 187.578 62.4882 193.765 65.5988 199.652L16.9658 192.177L58.1229 181.185ZM81.9274 222.217L51.7394 252.405L69.5814 206.537C73.1606 212.164 77.2967 217.417 81.9274 222.217ZM84.829 225.118C89.6306 229.733 94.8837 233.854 100.509 237.419L54.6182 255.261L84.829 225.118ZM125.861 248.877L114.869 290.034L107.393 241.401C113.266 244.509 119.438 247.014 125.815 248.877H125.861ZM129.832 249.935C136.295 251.527 142.901 252.461 149.552 252.723L118.829 291.081L129.832 249.935ZM177.259 249.935L188.319 291.081L157.494 252.723C164.144 252.461 170.751 251.527 177.213 249.935H177.259ZM181.23 248.877C187.623 247.017 193.811 244.512 199.698 241.401L192.222 290.034L181.23 248.877ZM222.262 225.118L252.45 255.261L206.582 237.419C212.192 233.851 217.429 229.73 222.217 225.118H222.262ZM225.164 222.217C229.778 217.415 233.899 212.162 237.464 206.537L255.306 252.405L225.164 222.217ZM248.923 181.185L290.08 192.177L241.447 199.652C244.542 193.764 247.031 187.576 248.877 181.185H248.923ZM249.981 177.213C251.572 170.751 252.506 164.144 252.769 157.494L291.127 188.274L249.981 177.213ZM252.769 149.506C252.506 142.856 251.572 136.249 249.981 129.787L291.127 118.726L252.769 149.506ZM298.784 189.423L253.963 153.5L298.739 117.577C299.809 121.901 300.689 126.297 301.379 130.765L274.946 151.975C274.72 152.16 274.537 152.392 274.411 152.656C274.285 152.92 274.219 153.208 274.218 153.5C274.218 153.791 274.284 154.077 274.41 154.339C274.536 154.601 274.719 154.832 274.946 155.013L301.379 176.223C300.726 180.699 299.847 185.099 298.739 189.423H298.784ZM279.327 153.5L302.084 135.294C303.568 147.386 303.568 159.614 302.084 171.706L279.327 153.5ZM171.729 5.00667L153.523 27.7643L135.317 5.00667C147.409 3.52358 159.637 3.52358 171.729 5.00667ZM135.317 301.993L153.523 279.236L171.729 301.993C159.637 303.476 147.409 303.476 135.317 301.993Z" fill="#E8BA77"/>
</svg>
