<svg width="174" height="66" viewBox="0 0 174 66" fill="none" xmlns="http://www.w3.org/2000/svg">
<path d="M39.9059 38.7193V24.6901L33.84 35.483H32.4166L26.3238 24.6901V38.7193H23.9915V20.3431H26.4414L33.1026 32.2735L39.7907 20.3431H42.2259V38.7193H39.9059Z" fill="white"/>
<path d="M39.9059 38.7193V24.6901L33.84 35.483H32.4166L26.3238 24.6901V38.7193H23.9915V20.3431H26.4414L33.1026 32.2735L39.7907 20.3431H42.2259V38.7193H39.9059Z" fill="#E8BA77"/>
<path d="M27.2107 43.8076C27.2062 43.8438 27.1945 43.8787 27.1764 43.9103C26.8374 44.4061 26.3995 44.8267 25.8902 45.1457C25.405 45.5028 24.8261 45.7111 24.2243 45.745C23.504 45.745 23.1439 45.2933 23.1439 44.3898C23.1439 43.7978 23.3889 43.1446 23.9156 42.4328C24.4644 41.6761 25.0303 41.2985 25.6134 41.3002C25.6721 41.301 25.7298 41.3153 25.782 41.3421C25.8343 41.3688 25.8797 41.4072 25.9147 41.4543C25.9959 41.5445 26.042 41.6608 26.0445 41.7821C26.0445 42.1343 25.775 42.5624 25.2361 43.0664C24.8574 43.4453 24.409 43.7476 23.9156 43.9568C23.8436 44.1901 23.8032 44.432 23.7956 44.676C23.7956 45.1457 24.0062 45.3805 24.4301 45.3805C24.9204 45.352 25.3918 45.182 25.7873 44.8913C26.2048 44.6214 26.5804 44.2917 26.902 43.9128C26.9804 43.8002 27.0612 43.7415 27.147 43.7415C27.1557 43.7411 27.1643 43.7426 27.1724 43.7458C27.1804 43.7491 27.1877 43.7539 27.1937 43.7602C27.1998 43.7664 27.2044 43.7739 27.2073 43.7821C27.2102 43.7902 27.2114 43.7989 27.2107 43.8076ZM25.5276 41.9924C25.5317 41.9645 25.5293 41.936 25.5204 41.9092C25.5115 41.8824 25.4964 41.858 25.4765 41.838C25.4565 41.8181 25.4321 41.8031 25.4052 41.7942C25.3784 41.7853 25.3498 41.7828 25.3218 41.787C25.1503 41.787 24.9004 42.0487 24.5673 42.5747C24.3419 42.8962 24.163 43.2479 24.0356 43.6192C24.3841 43.4576 24.6985 43.2309 24.9617 42.9514C25.339 42.5844 25.5276 42.2664 25.5276 41.9924Z" fill="white"/>
<path d="M32.7719 43.6828C32.7725 43.7245 32.7605 43.7654 32.7376 43.8002C32.6112 44.0707 32.4096 44.2991 32.1567 44.4583C31.9039 44.6174 31.6106 44.7007 31.3118 44.698C31.1647 44.7132 31.016 44.699 30.8745 44.6562C30.733 44.6134 30.6014 44.543 30.4874 44.449C30.3734 44.355 30.2793 44.2392 30.2105 44.1085C30.1417 43.9778 30.0997 43.8348 30.0868 43.6877C29.82 44.1495 29.4772 44.563 29.0726 44.9108C28.5238 45.4392 28.0926 45.7059 27.7864 45.7059C27.3748 45.7059 27.169 45.405 27.169 44.8081C27.1768 44.3661 27.2761 43.9305 27.4606 43.5287C27.447 43.5443 27.4355 43.5616 27.4263 43.5801C27.3037 43.8512 27.1289 44.0956 26.9118 44.2993C26.857 44.3592 26.7852 44.401 26.706 44.4191C26.6717 44.4191 26.6546 44.3971 26.6546 44.3506C26.6546 44.3041 26.8995 43.9397 27.3577 43.3574C27.6283 42.9978 27.9204 42.6547 28.2323 42.33C28.3243 42.2414 28.4474 42.1923 28.5752 42.193C28.7124 42.193 28.781 42.2371 28.781 42.33C28.7749 42.3924 28.7511 42.4518 28.7124 42.5013C27.9579 43.5417 27.5806 44.3637 27.5806 44.9671C27.5806 45.2117 27.6957 45.3291 27.9236 45.3291C28.2543 45.3291 28.6585 45.0527 29.124 44.5047C29.4723 44.1175 29.7672 43.6856 30.0011 43.2205V43.1348C30.0011 43.0541 30.0011 42.9416 29.9839 42.7924C29.9668 42.6431 29.9668 42.5477 29.9668 42.467C29.9668 41.8147 30.2118 41.3972 30.7017 41.2145C30.7663 41.1841 30.8362 41.1667 30.9075 41.1632C31.057 41.1632 31.1305 41.2659 31.1305 41.4714C31.1305 41.9606 30.9124 42.511 30.4788 43.152V43.2547C30.4703 43.5502 30.5676 43.839 30.7532 44.0693C30.8302 44.1857 30.9345 44.2815 31.057 44.3484C31.1796 44.4153 31.3166 44.4514 31.4563 44.4534C31.6186 44.4394 31.776 44.3909 31.918 44.3112C32.06 44.2314 32.1832 44.1223 32.2794 43.991C32.4237 43.8523 32.5511 43.6971 32.6592 43.5287C32.7376 43.5434 32.7719 43.5825 32.7719 43.6828Z" fill="white"/>
<path d="M36.0988 43.8076C36.0952 43.8439 36.0835 43.879 36.0645 43.9103C35.7268 44.4072 35.2887 44.8281 34.7783 45.1457C34.294 45.5028 33.7159 45.7111 33.1148 45.745C32.393 45.745 32.032 45.2933 32.032 44.3898C32.032 43.7978 32.2892 43.1446 32.8037 42.4328C33.3558 41.6761 33.9225 41.2985 34.5039 41.3002C34.5626 41.301 34.6204 41.3153 34.6726 41.3421C34.7249 41.3688 34.7703 41.4072 34.8053 41.4543C34.8858 41.5447 34.931 41.6611 34.9327 41.7821C34.9327 42.1343 34.664 42.5624 34.1266 43.0664C33.7475 43.4459 33.2982 43.7483 32.8037 43.9568C32.7329 44.1904 32.6926 44.4321 32.6837 44.676C32.6837 45.1457 32.8968 45.3805 33.3206 45.3805C33.8101 45.3518 34.2808 45.1818 34.6754 44.8913C35.0935 44.622 35.4691 44.2922 35.7901 43.9128C35.871 43.8002 35.9518 43.7415 36.0351 43.7415C36.0438 43.7411 36.0524 43.7426 36.0605 43.7458C36.0686 43.7491 36.0758 43.7539 36.0819 43.7602C36.0879 43.7664 36.0925 43.7739 36.0954 43.7821C36.0983 43.7902 36.0995 43.7989 36.0988 43.8076ZM34.4182 41.9924C34.4223 41.9645 34.4198 41.936 34.4109 41.9092C34.4021 41.8824 34.387 41.858 34.367 41.838C34.347 41.8181 34.3226 41.8031 34.2958 41.7942C34.2689 41.7853 34.2404 41.7828 34.2124 41.787C34.0409 41.787 33.7894 42.0495 33.4578 42.5747C33.2325 42.8962 33.0535 43.2479 32.9262 43.6192C33.2747 43.4576 33.589 43.2309 33.8523 42.9514C34.2295 42.5844 34.4182 42.2664 34.4182 41.9924Z" fill="white"/>
<path d="M40.9569 43.6168C40.949 43.7204 40.9135 43.8201 40.854 43.9054C40.0749 45.1775 39.2681 45.8135 38.4335 45.8135C37.7819 45.8135 37.4536 45.405 37.4536 44.5904C37.4368 43.919 37.6064 43.2561 37.9435 42.6749C37.0044 43.5619 36.1812 44.5639 35.4937 45.6569C35.4251 45.7597 35.3736 45.8111 35.3393 45.8111C35.2364 45.8111 35.185 45.7059 35.185 45.5004C35.1822 45.4515 35.1941 45.4029 35.2193 45.3609C35.5301 44.5449 35.7823 43.7078 35.9738 42.856C36.0081 42.6701 36.0669 42.401 36.1453 42.0438C36.2013 41.9401 36.2864 41.855 36.3903 41.7992C36.4917 41.7269 36.6114 41.6845 36.7358 41.6769C36.8141 41.6769 36.8558 41.7136 36.8558 41.7821C36.8558 41.8962 36.5863 42.7752 36.0473 44.4191C36.1845 44.2381 36.6157 43.7513 37.336 42.9636C37.581 42.6896 37.9288 42.3007 38.3992 41.7967C38.4731 41.725 38.5706 41.6824 38.6736 41.6769C38.7274 41.669 38.7824 41.6738 38.834 41.691C38.8857 41.7081 38.9325 41.7371 38.9709 41.7757C39.0093 41.8142 39.038 41.8612 39.0549 41.9129C39.0718 41.9646 39.0763 42.0195 39.068 42.0732C39.0631 42.1464 39.0395 42.2171 38.9994 42.2787C38.3608 43.3273 38.0407 44.1606 38.0391 44.7787C38.0391 45.2142 38.2449 45.4319 38.6565 45.4319C39.0483 45.4016 39.4149 45.2273 39.6854 44.9426C39.9895 44.6663 40.2607 44.3561 40.4939 44.0179C40.6057 43.8351 40.7444 43.6702 40.9054 43.5287C40.9397 43.5165 40.9569 43.5434 40.9569 43.6168Z" fill="white"/>
<path d="M44.5876 43.6877C44.5819 43.7502 44.558 43.8097 44.519 43.8589C44.1282 44.3556 43.658 44.7846 43.1275 45.1285C42.4317 45.5958 41.8584 45.8306 41.4125 45.8306C40.7592 45.8306 40.4326 45.356 40.4326 44.4069C40.456 43.5826 40.6672 42.7745 41.05 42.0438C40.2497 42.0438 39.8495 41.8946 39.8495 41.5961C39.8495 41.5276 39.9059 41.4934 40.021 41.4934C40.1362 41.4934 40.3738 41.4934 40.6727 41.5276C40.9716 41.5619 41.1921 41.5619 41.3415 41.5619C41.4101 41.4494 41.6616 40.9927 42.0961 40.192C42.307 39.7451 42.5846 39.3327 42.9192 38.9689C43.0086 38.8847 43.1142 38.8196 43.2296 38.7775C43.345 38.7355 43.4678 38.7173 43.5905 38.7242C43.8355 38.7242 43.9678 38.7756 43.9678 38.8784C43.9644 38.8962 43.9586 38.9135 43.9506 38.9297L43.2647 39.803C42.8206 40.3833 42.4116 40.9894 42.0397 41.6182C42.2014 41.6182 42.4292 41.6353 42.7257 41.6353C42.8065 41.6353 42.9266 41.6353 43.0858 41.6182H43.4484C43.5856 41.6182 43.6542 41.6524 43.6542 41.7209C43.6542 41.8954 43.0589 41.999 41.8682 42.0316C41.6447 42.4068 41.4718 42.8099 41.3538 43.2302C41.2102 43.6383 41.1277 44.0653 41.1088 44.4974C41.1088 45.0927 41.3317 45.3903 41.7776 45.3903C42.1549 45.3903 42.6179 45.1954 43.1667 44.8056C43.5918 44.5184 43.9689 44.1659 44.2838 43.7611C44.3622 43.6583 44.4381 43.607 44.5067 43.607C44.5753 43.607 44.5876 43.6314 44.5876 43.6877Z" fill="white"/>
<path d="M27.2107 43.8076C27.2062 43.8438 27.1945 43.8787 27.1764 43.9103C26.8374 44.4061 26.3995 44.8267 25.8902 45.1457C25.405 45.5028 24.8261 45.7111 24.2243 45.745C23.504 45.745 23.1439 45.2933 23.1439 44.3898C23.1439 43.7978 23.3889 43.1446 23.9156 42.4328C24.4644 41.6761 25.0303 41.2985 25.6134 41.3002C25.6721 41.301 25.7298 41.3153 25.782 41.3421C25.8343 41.3688 25.8797 41.4072 25.9147 41.4543C25.9959 41.5445 26.042 41.6608 26.0445 41.7821C26.0445 42.1343 25.775 42.5624 25.2361 43.0664C24.8574 43.4453 24.409 43.7476 23.9156 43.9568C23.8436 44.1901 23.8032 44.432 23.7956 44.676C23.7956 45.1457 24.0062 45.3805 24.4301 45.3805C24.9204 45.352 25.3918 45.182 25.7873 44.8913C26.2048 44.6214 26.5804 44.2917 26.902 43.9128C26.9804 43.8002 27.0612 43.7415 27.147 43.7415C27.1557 43.7411 27.1643 43.7426 27.1724 43.7458C27.1804 43.7491 27.1877 43.7539 27.1937 43.7602C27.1998 43.7664 27.2044 43.7739 27.2073 43.7821C27.2102 43.7902 27.2114 43.7989 27.2107 43.8076ZM25.5276 41.9924C25.5317 41.9645 25.5293 41.936 25.5204 41.9092C25.5115 41.8824 25.4964 41.858 25.4765 41.838C25.4565 41.8181 25.4321 41.8031 25.4052 41.7942C25.3784 41.7853 25.3498 41.7828 25.3218 41.787C25.1503 41.787 24.9004 42.0487 24.5673 42.5747C24.3419 42.8962 24.163 43.2479 24.0356 43.6192C24.3841 43.4576 24.6985 43.2309 24.9617 42.9514C25.339 42.5844 25.5276 42.2664 25.5276 41.9924Z" fill="#E8BA77"/>
<path d="M32.7719 43.6828C32.7725 43.7245 32.7605 43.7654 32.7376 43.8002C32.6112 44.0707 32.4096 44.2991 32.1567 44.4583C31.9039 44.6174 31.6106 44.7007 31.3118 44.698C31.1647 44.7132 31.016 44.699 30.8745 44.6562C30.733 44.6134 30.6014 44.543 30.4874 44.449C30.3734 44.355 30.2793 44.2392 30.2105 44.1085C30.1417 43.9778 30.0997 43.8348 30.0868 43.6877C29.82 44.1495 29.4772 44.563 29.0726 44.9108C28.5238 45.4392 28.0926 45.7059 27.7864 45.7059C27.3748 45.7059 27.169 45.405 27.169 44.8081C27.1768 44.3661 27.2761 43.9305 27.4606 43.5287C27.447 43.5443 27.4355 43.5616 27.4263 43.5801C27.3037 43.8512 27.1289 44.0956 26.9118 44.2993C26.857 44.3592 26.7852 44.401 26.706 44.4191C26.6717 44.4191 26.6546 44.3971 26.6546 44.3506C26.6546 44.3041 26.8995 43.9397 27.3577 43.3574C27.6283 42.9978 27.9204 42.6547 28.2323 42.33C28.3243 42.2414 28.4474 42.1923 28.5752 42.193C28.7124 42.193 28.781 42.2371 28.781 42.33C28.7749 42.3924 28.7511 42.4518 28.7124 42.5013C27.9579 43.5417 27.5806 44.3637 27.5806 44.9671C27.5806 45.2117 27.6957 45.3291 27.9236 45.3291C28.2543 45.3291 28.6585 45.0527 29.124 44.5047C29.4723 44.1175 29.7672 43.6856 30.0011 43.2205V43.1348C30.0011 43.0541 30.0011 42.9416 29.9839 42.7924C29.9668 42.6431 29.9668 42.5477 29.9668 42.467C29.9668 41.8147 30.2118 41.3972 30.7017 41.2145C30.7663 41.1841 30.8362 41.1667 30.9075 41.1632C31.057 41.1632 31.1305 41.2659 31.1305 41.4714C31.1305 41.9606 30.9124 42.511 30.4788 43.152V43.2547C30.4703 43.5502 30.5676 43.839 30.7532 44.0693C30.8302 44.1857 30.9345 44.2815 31.057 44.3484C31.1796 44.4153 31.3166 44.4514 31.4563 44.4534C31.6186 44.4394 31.776 44.3909 31.918 44.3112C32.06 44.2314 32.1832 44.1223 32.2794 43.991C32.4237 43.8523 32.5511 43.6971 32.6592 43.5287C32.7376 43.5434 32.7719 43.5825 32.7719 43.6828Z" fill="#E8BA77"/>
<path d="M36.0988 43.8076C36.0952 43.8439 36.0835 43.879 36.0645 43.9103C35.7268 44.4072 35.2887 44.8281 34.7783 45.1457C34.294 45.5028 33.7159 45.7111 33.1148 45.745C32.393 45.745 32.032 45.2933 32.032 44.3898C32.032 43.7978 32.2892 43.1446 32.8037 42.4328C33.3558 41.6761 33.9225 41.2985 34.5039 41.3002C34.5626 41.301 34.6204 41.3153 34.6726 41.3421C34.7249 41.3688 34.7703 41.4072 34.8053 41.4543C34.8858 41.5447 34.931 41.6611 34.9327 41.7821C34.9327 42.1343 34.664 42.5624 34.1266 43.0664C33.7475 43.4459 33.2982 43.7483 32.8037 43.9568C32.7329 44.1904 32.6926 44.4321 32.6837 44.676C32.6837 45.1457 32.8968 45.3805 33.3206 45.3805C33.8101 45.3518 34.2808 45.1818 34.6754 44.8913C35.0935 44.622 35.4691 44.2922 35.7901 43.9128C35.871 43.8002 35.9518 43.7415 36.0351 43.7415C36.0438 43.7411 36.0524 43.7426 36.0605 43.7458C36.0686 43.7491 36.0758 43.7539 36.0819 43.7602C36.0879 43.7664 36.0925 43.7739 36.0954 43.7821C36.0983 43.7902 36.0995 43.7989 36.0988 43.8076ZM34.4182 41.9924C34.4223 41.9645 34.4198 41.936 34.4109 41.9092C34.4021 41.8824 34.387 41.858 34.367 41.838C34.347 41.8181 34.3226 41.8031 34.2958 41.7942C34.2689 41.7853 34.2404 41.7828 34.2124 41.787C34.0409 41.787 33.7894 42.0495 33.4578 42.5747C33.2325 42.8962 33.0535 43.2479 32.9262 43.6192C33.2747 43.4576 33.589 43.2309 33.8523 42.9514C34.2295 42.5844 34.4182 42.2664 34.4182 41.9924Z" fill="#E8BA77"/>
<path d="M40.9569 43.6168C40.949 43.7204 40.9135 43.8201 40.854 43.9054C40.0749 45.1775 39.2681 45.8135 38.4335 45.8135C37.7819 45.8135 37.4536 45.405 37.4536 44.5904C37.4368 43.919 37.6064 43.2561 37.9435 42.6749C37.0044 43.5619 36.1812 44.5639 35.4937 45.6569C35.4251 45.7597 35.3736 45.8111 35.3393 45.8111C35.2364 45.8111 35.185 45.7059 35.185 45.5004C35.1822 45.4515 35.1941 45.4029 35.2193 45.3609C35.5301 44.5449 35.7823 43.7078 35.9738 42.856C36.0081 42.6701 36.0669 42.401 36.1453 42.0438C36.2013 41.9401 36.2864 41.855 36.3903 41.7992C36.4917 41.7269 36.6114 41.6845 36.7358 41.6769C36.8141 41.6769 36.8558 41.7136 36.8558 41.7821C36.8558 41.8962 36.5863 42.7752 36.0473 44.4191C36.1845 44.2381 36.6157 43.7513 37.336 42.9636C37.581 42.6896 37.9288 42.3007 38.3992 41.7967C38.4731 41.725 38.5706 41.6824 38.6736 41.6769C38.7274 41.669 38.7824 41.6738 38.834 41.691C38.8857 41.7081 38.9325 41.7371 38.9709 41.7757C39.0093 41.8142 39.038 41.8612 39.0549 41.9129C39.0718 41.9646 39.0763 42.0195 39.068 42.0732C39.0631 42.1464 39.0395 42.2171 38.9994 42.2787C38.3608 43.3273 38.0407 44.1606 38.0391 44.7787C38.0391 45.2142 38.2449 45.4319 38.6565 45.4319C39.0483 45.4016 39.4149 45.2273 39.6854 44.9426C39.9895 44.6663 40.2607 44.3561 40.4939 44.0179C40.6057 43.8351 40.7444 43.6702 40.9054 43.5287C40.9397 43.5165 40.9569 43.5434 40.9569 43.6168Z" fill="#E8BA77"/>
<path d="M44.5876 43.6877C44.5819 43.7502 44.558 43.8097 44.519 43.8589C44.1282 44.3556 43.658 44.7846 43.1275 45.1285C42.4317 45.5958 41.8584 45.8306 41.4125 45.8306C40.7592 45.8306 40.4326 45.356 40.4326 44.4069C40.456 43.5826 40.6672 42.7745 41.05 42.0438C40.2497 42.0438 39.8495 41.8946 39.8495 41.5961C39.8495 41.5276 39.9059 41.4934 40.021 41.4934C40.1362 41.4934 40.3738 41.4934 40.6727 41.5276C40.9716 41.5619 41.1921 41.5619 41.3415 41.5619C41.4101 41.4494 41.6616 40.9927 42.0961 40.192C42.307 39.7451 42.5846 39.3327 42.9192 38.9689C43.0086 38.8847 43.1142 38.8196 43.2296 38.7775C43.345 38.7355 43.4678 38.7173 43.5905 38.7242C43.8355 38.7242 43.9678 38.7756 43.9678 38.8784C43.9644 38.8962 43.9586 38.9135 43.9506 38.9297L43.2647 39.803C42.8206 40.3833 42.4116 40.9894 42.0397 41.6182C42.2014 41.6182 42.4292 41.6353 42.7257 41.6353C42.8065 41.6353 42.9266 41.6353 43.0858 41.6182H43.4484C43.5856 41.6182 43.6542 41.6524 43.6542 41.7209C43.6542 41.8954 43.0589 41.999 41.8682 42.0316C41.6447 42.4068 41.4718 42.8099 41.3538 43.2302C41.2102 43.6383 41.1277 44.0653 41.1088 44.4974C41.1088 45.0927 41.3317 45.3903 41.7776 45.3903C42.1549 45.3903 42.6179 45.1954 43.1667 44.8056C43.5918 44.5184 43.9689 44.1659 44.2838 43.7611C44.3622 43.6583 44.4381 43.607 44.5067 43.607C44.5753 43.607 44.5876 43.6314 44.5876 43.6877Z" fill="#E8BA77"/>
<path d="M33.0487 0C14.8266 0 0 14.8047 0 33C0 51.1953 14.8266 66 33.0487 66C51.2708 66 66.0974 51.1953 66.0974 33C66.0974 14.8047 51.2708 0 33.0487 0ZM58.7723 52.3499L56.5062 46.5302L62.7019 45.5787C61.6717 47.9874 60.3504 50.2614 58.7674 52.3499H58.7723ZM63.0694 44.6735L55.857 45.7719C55.795 45.7818 55.736 45.8053 55.6842 45.8409C55.6325 45.8764 55.5894 45.9231 55.5581 45.9774C55.5267 46.0314 55.5079 46.0918 55.5033 46.1541C55.4986 46.2164 55.5081 46.2789 55.5311 46.337L58.1672 53.1082C57.5629 53.8617 56.9251 54.5866 56.2538 55.283L51.7804 43.8002L63.9979 41.924C63.7268 42.8568 63.4156 43.7701 63.0645 44.6638L63.0694 44.6735ZM53.1866 58.0815L46.4054 55.4493C46.3472 55.4263 46.2846 55.4168 46.2222 55.4215C46.1598 55.4261 46.0993 55.4448 46.0452 55.4762C45.9908 55.5075 45.9441 55.5505 45.9085 55.6022C45.8729 55.6538 45.8493 55.7127 45.8395 55.7747L44.7297 62.9715C43.833 63.3222 42.9184 63.6328 41.9858 63.9036L43.8649 51.7041L55.367 56.1709C54.6663 56.8412 53.9395 57.4781 53.1866 58.0815ZM52.4272 58.6808C50.3348 60.2563 48.0575 61.5707 45.6459 62.5948L46.5989 56.4082L52.4272 58.6808ZM37.9509 64.7964L33.3843 59.1138C33.3432 59.0678 33.2928 59.031 33.2364 59.0058C33.1801 58.9806 33.119 58.9676 33.0573 58.9676C32.9955 58.9676 32.9345 58.9806 32.8781 59.0058C32.8218 59.031 32.7714 59.0678 32.7302 59.1138L28.1637 64.7964C27.2033 64.6497 26.2569 64.4605 25.3243 64.2289L33.0585 54.6029L40.7927 64.2289C39.8553 64.4638 38.9047 64.6513 37.9411 64.7915L37.9509 64.7964ZM21.3751 62.9764L20.2579 55.7747C20.2481 55.7127 20.2245 55.6538 20.1889 55.6022C20.1533 55.5505 20.1066 55.5075 20.0522 55.4762C19.9981 55.4448 19.9376 55.4261 19.8752 55.4215C19.8128 55.4168 19.7502 55.4263 19.692 55.4493L12.9108 58.0815C12.1562 57.4781 11.4303 56.8412 10.7329 56.1709L22.2325 51.7041L24.1116 63.9036C23.179 63.6328 22.2636 63.3222 21.3653 62.9715L21.3751 62.9764ZM20.4711 62.6095C18.0595 61.5854 15.7822 60.271 13.6899 58.6955L19.5181 56.4327L20.4711 62.6095ZM3.40042 45.5689L9.59613 46.5205L7.33 52.3499C5.74806 50.258 4.42839 47.9808 3.40042 45.5689ZM10.5663 46.337C10.5866 46.2803 10.5943 46.2198 10.5888 46.1598C10.5833 46.0998 10.5648 46.0417 10.5344 45.9896C10.5031 45.9353 10.46 45.8887 10.4083 45.8531C10.3566 45.8176 10.2975 45.794 10.2355 45.7841L3.02559 44.676C2.6777 43.7807 2.36739 42.8674 2.09464 41.9362L14.3097 43.8125L9.84357 55.2854C9.1723 54.5874 8.53452 53.8625 7.93022 53.1107L10.5663 46.337ZM0.837855 33C0.840261 31.6916 0.922073 30.3845 1.08284 29.086L5.98257 33L1.08284 36.914C0.922073 35.6155 0.840261 34.3084 0.837855 33ZM6.90128 33.3254C6.95008 33.2863 6.9895 33.2367 7.01664 33.1804C7.04377 33.1241 7.05793 33.0625 7.05807 33C7.05777 32.9372 7.04356 32.8752 7.01645 32.8186C6.98934 32.7619 6.95001 32.7119 6.90128 32.6722L1.21023 28.1124C1.35723 27.1534 1.54668 26.2084 1.7786 25.2772L11.4188 33L1.7786 40.7228C1.54832 39.7933 1.35886 38.8474 1.21023 37.8852L6.90128 33.3254ZM7.33 13.6599L9.59613 19.4795L3.40042 20.4311C4.42911 18.0226 5.74875 15.7487 7.33 13.6599ZM3.03294 21.3338L10.2404 20.2281C10.3016 20.2176 10.3596 20.1937 10.4104 20.1582C10.4613 20.1226 10.5036 20.0764 10.5344 20.0226C10.5658 19.9686 10.5846 19.9082 10.5892 19.8459C10.5939 19.7836 10.5844 19.7211 10.5614 19.663L7.93022 12.8918C8.53615 12.1383 9.17393 11.4134 9.84357 10.717L14.3146 22.1998L2.09954 24.0761C2.37229 23.1448 2.68342 22.2308 3.03294 21.3338ZM12.9108 7.91853L19.692 10.5507C19.7403 10.57 19.7919 10.58 19.8439 10.5801C19.9438 10.5796 20.0403 10.5436 20.1162 10.4786C20.192 10.4137 20.2423 10.3239 20.2579 10.2254L21.3677 3.02847C22.2644 2.67784 23.179 2.36716 24.1116 2.09644L22.2325 14.2935L10.7329 9.82906C11.4303 9.15878 12.1562 8.52194 12.9108 7.91853ZM13.6801 7.3192C15.7724 5.7437 18.0497 4.42929 20.4613 3.40519L19.5083 9.58199L13.6801 7.3192ZM28.1539 1.20356L32.7204 6.88621C32.7602 6.93488 32.8102 6.97415 32.867 7.00122C32.9238 7.02829 32.9858 7.04248 33.0487 7.04277C33.1113 7.04263 33.173 7.0285 33.2294 7.0014C33.2858 6.97431 33.3354 6.93495 33.3745 6.88621L37.9411 1.20845C38.9047 1.35523 39.852 1.5444 40.7829 1.77598L33.0487 11.402L25.3145 1.77598C26.2405 1.54603 27.187 1.35686 28.1539 1.20845V1.20356ZM44.7297 3.02113L45.8395 10.2205C45.8551 10.319 45.9054 10.4088 45.9812 10.4737C46.0571 10.5387 46.1536 10.5747 46.2535 10.5752C46.3055 10.5751 46.3571 10.5652 46.4054 10.5458L53.1866 7.91853C53.9412 8.52357 54.6671 9.16042 55.3645 9.82906L43.8649 14.2935L41.9858 2.09644C42.92 2.36879 43.8347 2.67865 44.7297 3.02602V3.02113ZM45.6361 3.39051C48.0477 4.41462 50.325 5.72902 52.4174 7.30452L46.5891 9.56731L45.6361 3.39051ZM62.697 20.4262L56.5013 19.4746L58.7674 13.655C60.349 15.7453 61.6687 18.0209 62.697 20.4311V20.4262ZM55.5311 19.6581C55.5081 19.7162 55.4986 19.7787 55.5033 19.841C55.5079 19.9033 55.5267 19.9637 55.5581 20.0177C55.5894 20.072 55.6325 20.1187 55.6842 20.1542C55.736 20.1898 55.795 20.2133 55.857 20.2232L63.0645 21.3289C63.4156 22.2275 63.7268 23.1416 63.9979 24.0712L51.7804 22.1949L56.2538 10.7122C56.9251 11.4085 57.5629 12.1334 58.1672 12.8869L55.5311 19.6581ZM33.0487 53.5119C27.6032 53.506 22.3824 51.3438 18.5314 47.4994C14.6804 43.655 12.5137 38.4423 12.5066 33.0049C12.5066 27.5648 14.6708 22.3475 18.5232 18.5008C22.3756 14.6541 27.6006 12.493 33.0487 12.493C38.4968 12.493 43.7218 14.6541 47.5742 18.5008C51.4266 22.3475 53.5908 27.5648 53.5908 33.0049C53.5837 38.4423 51.417 43.655 47.566 47.4994C43.715 51.3438 38.4942 53.506 33.0487 53.5119ZM53.5835 27.0483C53.1829 25.6739 52.6436 24.3436 51.9739 23.078L62.4447 24.6852L53.5835 27.0483ZM48.4682 18.2271L54.9579 11.742L51.1165 21.598C50.349 20.3887 49.4617 19.2593 48.4682 18.2271ZM47.8434 17.613C46.8096 16.6209 45.6787 15.735 44.4675 14.9686L54.343 11.1329L47.8434 17.613ZM39.0092 12.4955L41.3758 3.64737L42.9854 14.1027C41.7179 13.434 40.3857 12.8955 39.0092 12.4955ZM38.1542 12.268C36.7629 11.9259 35.3404 11.7251 33.9086 11.6686L40.5355 3.42476L38.1542 12.268ZM27.9432 12.268L25.5619 3.42476L32.1766 11.6711C30.7489 11.7276 29.3306 11.9275 27.9432 12.268ZM27.0882 12.4955C25.7122 12.8957 24.3801 13.4333 23.112 14.1002L24.7216 3.64737L27.0882 12.4955ZM18.254 17.613L11.7594 11.1231L21.6299 14.9589C20.4183 15.7283 19.2873 16.6175 18.254 17.613ZM17.639 18.2271C16.6421 19.2589 15.7515 20.3882 14.9809 21.598L11.1395 11.742L17.639 18.2271ZM12.5139 27.0483L3.65275 24.6852L14.1235 23.078C13.4538 24.3436 12.9145 25.6739 12.5139 27.0483ZM12.2861 27.902C11.9435 29.2913 11.7424 30.7117 11.6859 32.1414L3.42981 25.5242L12.2861 27.902ZM11.6859 33.8586C11.7424 35.2883 11.9435 36.7087 12.2861 38.098L3.42981 40.4758L11.6859 33.8586ZM12.5139 38.9517C12.9145 40.3261 13.4538 41.6564 14.1235 42.922L3.65275 41.3148L12.5139 38.9517ZM17.639 47.7729L11.1395 54.2629L14.9809 44.402C15.7515 45.6118 16.6421 46.7411 17.639 47.7729ZM18.2638 48.3967C19.2976 49.3888 20.4285 50.2748 21.6397 51.0411L11.7594 54.8769L18.2638 48.3967ZM27.098 53.5045L24.7314 62.3526L23.1218 51.8973C24.3862 52.5654 25.7151 53.1039 27.0882 53.5045H27.098ZM27.953 53.732C29.3444 54.0741 30.7668 54.2749 32.1986 54.3314L25.584 62.5777L27.953 53.732ZM38.164 53.732L40.5453 62.5777L33.9086 54.3314C35.3404 54.2749 36.7629 54.0741 38.1542 53.732H38.164ZM39.019 53.5045C40.3955 53.1045 41.7277 52.5661 42.9952 51.8973L41.3856 62.3526L39.019 53.5045ZM47.8532 48.3967L54.3527 54.8769L44.4773 51.0411C45.6851 50.2742 46.8127 49.3883 47.8434 48.3967H47.8532ZM48.478 47.7729C49.4715 46.7407 50.3587 45.6113 51.1263 44.402L54.9677 54.2629L48.478 47.7729ZM53.5933 38.9517L62.4545 41.3148L51.9837 42.922C52.6501 41.656 53.1861 40.3258 53.5835 38.9517H53.5933ZM53.8211 38.098C54.1637 36.7087 54.3648 35.2883 54.4213 33.8586L62.6798 40.4758L53.8211 38.098ZM54.4213 32.1414C54.3648 30.7117 54.1637 29.2913 53.8211 27.902L62.6798 25.5242L54.4213 32.1414ZM64.3286 40.7228L54.6786 33L64.3188 25.2772C64.5491 26.2067 64.7385 27.1518 64.8872 28.1124L59.1961 32.6722C59.1474 32.7119 59.1081 32.7619 59.081 32.8186C59.0539 32.8752 59.0396 32.9372 59.0393 33C59.0395 33.0625 59.0536 33.1241 59.0808 33.1804C59.1079 33.2367 59.1473 33.2863 59.1961 33.3254L64.8872 37.8852C64.7467 38.8474 64.5573 39.7933 64.3188 40.7228H64.3286ZM60.1393 33L65.0391 29.086C65.3584 31.6856 65.3584 34.3144 65.0391 36.914L60.1393 33ZM36.9734 1.07635L33.0536 5.96887L29.1338 1.07635C31.7373 0.757512 34.37 0.757512 36.9734 1.07635ZM29.1338 64.9237L33.0536 60.0311L36.9734 64.9237C34.37 65.2425 31.7373 65.2425 29.1338 64.9237Z" fill="#E8BA77"/>
<path d="M135.852 49.7331C135.843 49.8124 135.818 49.8891 135.778 49.9586C135.035 51.0423 134.074 51.9599 132.954 52.6529C131.624 53.5305 130.405 53.9679 129.298 53.9652C127.72 53.9652 126.93 52.9783 126.927 51.0044C126.927 49.7085 127.492 48.2814 128.622 46.7353C129.825 45.095 131.062 44.2748 132.332 44.2748C132.46 44.2764 132.586 44.3076 132.699 44.366C132.813 44.4243 132.912 44.5083 132.987 44.6111C133.165 44.8059 133.265 45.0578 133.272 45.3205C133.272 46.0942 132.682 47.032 131.503 48.1338C130.674 48.9593 129.695 49.6204 128.618 50.0817C128.459 50.5924 128.37 51.1221 128.354 51.6564C128.354 52.6816 128.82 53.1901 129.747 53.1901C130.824 53.1224 131.858 52.7449 132.723 52.1034C133.638 51.5133 134.463 50.7951 135.172 49.9709C135.345 49.7208 135.522 49.5937 135.7 49.5937C135.719 49.5905 135.74 49.5918 135.759 49.5975C135.778 49.6032 135.795 49.6132 135.81 49.6266C135.825 49.64 135.836 49.6566 135.843 49.675C135.851 49.6935 135.854 49.7133 135.852 49.7331ZM132.142 45.7593C132.149 45.6985 132.141 45.637 132.121 45.5793C132.1 45.5217 132.067 45.4693 132.024 45.4261C131.98 45.3828 131.928 45.3498 131.87 45.3294C131.812 45.309 131.75 45.3018 131.689 45.3082C131.314 45.3082 130.761 45.8865 130.04 47.0347C129.545 47.738 129.153 48.5069 128.873 49.3189C129.637 48.9648 130.327 48.4693 130.905 47.859C131.73 47.0661 132.142 46.3663 132.142 45.7593Z" fill="white"/>
<path d="M148.046 49.4583C148.048 49.5499 148.022 49.64 147.972 49.7167C147.241 51.0262 146.198 51.681 144.843 51.681C143.338 51.681 142.444 50.9429 142.168 49.4706C141.584 50.4826 140.833 51.3894 139.946 52.1526C138.742 53.3132 137.798 53.8914 137.122 53.8914C136.218 53.8914 135.766 53.2366 135.766 51.9271C135.785 50.9625 136.002 50.0121 136.405 49.1344C136.374 49.167 136.349 49.2044 136.33 49.2451C136.061 49.8384 135.677 50.3734 135.201 50.8198C135.08 50.951 134.922 51.0426 134.747 51.0823C134.673 51.0823 134.636 51.0331 134.636 50.9306C134.636 50.7583 135.15 50.0338 136.178 48.7571C136.774 47.9707 137.417 47.2203 138.103 46.5098C138.305 46.3179 138.574 46.2107 138.853 46.2104C139.154 46.2104 139.307 46.3088 139.307 46.5098C139.293 46.6463 139.24 46.776 139.154 46.883C137.505 49.1603 136.681 50.9593 136.681 52.2797C136.681 52.8047 136.932 53.0671 137.435 53.0671C138.166 53.0671 139.046 52.467 140.073 51.2668C140.834 50.4175 141.48 49.4732 141.994 48.4577V48.2691C141.994 48.0968 141.994 47.859 141.957 47.5227C141.92 47.1864 141.916 46.9568 141.916 46.8092C141.916 45.3862 142.456 44.4717 143.536 44.0739C143.679 44.0072 143.833 43.9683 143.99 43.9591C144.315 43.9591 144.48 44.1846 144.48 44.6357C144.48 45.6855 144.003 46.9089 143.05 48.306V48.5315C143.028 49.1776 143.242 49.8096 143.652 50.3113C143.82 50.5664 144.049 50.7766 144.317 50.9238C144.586 51.0711 144.887 51.1508 145.193 51.1561C145.798 51.1561 146.401 50.8185 147.003 50.1432C147.318 49.8416 147.595 49.5028 147.827 49.1344C147.972 49.1303 148.046 49.241 148.046 49.4583Z" fill="white"/>
<path d="M155.355 49.7331C155.343 49.8125 155.317 49.8891 155.276 49.9586C154.535 51.043 153.573 51.9608 152.453 52.6529C151.12 53.5305 149.902 53.9679 148.8 53.9652C147.217 53.9652 146.426 52.9783 146.426 51.0044C146.426 49.7085 146.991 48.2814 148.12 46.7353C149.329 45.095 150.573 44.2748 151.851 44.2748C151.98 44.2758 152.106 44.3067 152.221 44.3651C152.335 44.4234 152.434 44.5077 152.51 44.6111C152.685 44.8073 152.784 45.0586 152.791 45.3205C152.791 46.0942 152.201 47.032 151.022 48.1338C150.193 48.9593 149.214 49.6204 148.137 50.0817C147.978 50.5924 147.889 51.1221 147.873 51.6564C147.873 52.6816 148.339 53.1901 149.266 53.1901C150.343 53.1224 151.377 52.7449 152.242 52.1034C153.159 51.5155 153.984 50.797 154.691 49.9709C154.868 49.7208 155.042 49.5937 155.219 49.5937C155.237 49.5937 155.255 49.5973 155.272 49.6043C155.289 49.6114 155.304 49.6217 155.316 49.6347C155.329 49.6477 155.339 49.6632 155.346 49.68C155.352 49.6969 155.355 49.715 155.355 49.7331ZM151.645 45.7593C151.651 45.6985 151.644 45.637 151.623 45.5793C151.603 45.5217 151.57 45.4693 151.526 45.4261C151.483 45.3828 151.43 45.3498 151.372 45.3294C151.314 45.309 151.252 45.3018 151.191 45.3082C150.816 45.3082 150.264 45.8865 149.542 47.0347C149.05 47.739 148.657 48.5076 148.376 49.3189C149.141 48.9639 149.832 48.4686 150.412 47.859C151.248 47.0661 151.664 46.3663 151.661 45.7593H151.645Z" fill="white"/>
<path d="M166.015 49.3148C165.996 49.54 165.917 49.7563 165.788 49.9422C164.076 52.7254 162.305 54.1169 160.475 54.1169C159.043 54.1169 158.327 53.2271 158.327 51.4473C158.298 49.9784 158.676 48.5299 159.419 47.2603C157.355 49.1985 155.546 51.3895 154.036 53.7807C153.883 54.0021 153.772 54.1169 153.694 54.1169C153.471 54.1169 153.356 53.8873 153.356 53.4362C153.35 53.3301 153.376 53.2247 153.43 53.1327C154.108 51.3471 154.659 49.5163 155.079 47.6539C155.153 47.2439 155.277 46.6615 155.454 45.8783C155.574 45.6545 155.757 45.4706 155.981 45.3492C156.203 45.192 156.464 45.101 156.736 45.0868C156.909 45.0868 157 45.1606 157 45.3123C157 45.5666 156.409 47.4899 155.227 51.0823C155.527 50.6804 156.468 49.6183 158.051 47.8959C158.578 47.2972 159.358 46.4483 160.388 45.3492C160.549 45.1903 160.764 45.0967 160.99 45.0868C161.108 45.0704 161.227 45.0814 161.34 45.1189C161.452 45.1564 161.555 45.2193 161.639 45.3028C161.722 45.3863 161.786 45.488 161.823 45.6C161.861 45.7119 161.872 45.8311 161.856 45.948C161.845 46.107 161.794 46.2608 161.707 46.395C160.3 48.6969 159.597 50.5218 159.597 51.8697C159.597 52.8156 160.049 53.2899 160.953 53.2927C161.658 53.2927 162.408 52.9318 163.212 52.2059C163.878 51.5994 164.472 50.9198 164.985 50.1801C165.512 49.4583 165.809 49.0934 165.887 49.0934C165.966 49.0934 166.015 49.1672 166.015 49.3148Z" fill="white"/>
<path d="M174 49.4706C173.987 49.6071 173.934 49.7368 173.847 49.8438C172.993 50.9306 171.962 51.8675 170.797 52.616C169.263 53.6412 168.008 54.1538 167.029 54.1538C165.6 54.1538 164.884 53.1177 164.881 51.0454C164.934 49.2404 165.398 47.4709 166.238 45.87C164.482 45.87 163.604 45.5461 163.604 44.8981C163.604 44.7464 163.727 44.6726 163.979 44.6726C164.23 44.6726 164.758 44.6972 165.409 44.7464C166.06 44.7956 166.555 44.8243 166.881 44.8243C167.029 44.5728 167.579 43.5736 168.53 41.8266C169.255 40.4528 169.861 39.5506 170.335 39.1282C170.532 38.9458 170.764 38.8053 171.017 38.715C171.27 38.6248 171.539 38.5867 171.807 38.6033C172.359 38.6033 172.631 38.714 172.631 38.9395C172.627 38.9786 172.614 39.0163 172.594 39.0503C172.24 39.5014 171.741 40.137 171.086 40.9613C170.118 42.2338 169.225 43.5606 168.41 44.935C168.765 44.9596 169.263 44.972 169.919 44.972C170.092 44.972 170.356 44.9596 170.71 44.935H171.502C171.803 44.935 171.951 45.0089 171.951 45.1606C171.951 45.5338 170.649 45.7593 168.035 45.8331C167.546 46.6556 167.166 47.5378 166.906 48.4577C166.594 49.3511 166.417 50.2852 166.378 51.2299C166.378 52.5285 166.867 53.1778 167.845 53.1778C168.67 53.1778 169.688 52.7541 170.9 51.9066C171.829 51.2726 172.655 50.5009 173.349 49.6183C173.522 49.3927 173.687 49.282 173.835 49.282C173.984 49.282 174 49.3435 174 49.4706Z" fill="white"/>
<path d="M135.852 49.7331C135.843 49.8124 135.818 49.8891 135.778 49.9586C135.035 51.0423 134.074 51.9599 132.954 52.6529C131.624 53.5305 130.405 53.9679 129.298 53.9652C127.72 53.9652 126.93 52.9783 126.927 51.0044C126.927 49.7085 127.492 48.2814 128.622 46.7353C129.825 45.095 131.062 44.2748 132.332 44.2748C132.46 44.2764 132.586 44.3076 132.699 44.366C132.813 44.4243 132.912 44.5083 132.987 44.6111C133.165 44.8059 133.265 45.0578 133.272 45.3205C133.272 46.0942 132.682 47.032 131.503 48.1338C130.674 48.9593 129.695 49.6204 128.618 50.0817C128.459 50.5924 128.37 51.1221 128.354 51.6564C128.354 52.6816 128.82 53.1901 129.747 53.1901C130.824 53.1224 131.858 52.7449 132.723 52.1034C133.638 51.5133 134.463 50.7951 135.172 49.9709C135.345 49.7208 135.522 49.5937 135.7 49.5937C135.719 49.5905 135.74 49.5918 135.759 49.5975C135.778 49.6032 135.795 49.6132 135.81 49.6266C135.825 49.64 135.836 49.6566 135.843 49.675C135.851 49.6935 135.854 49.7133 135.852 49.7331ZM132.142 45.7593C132.149 45.6985 132.141 45.637 132.121 45.5793C132.1 45.5217 132.067 45.4693 132.024 45.4261C131.98 45.3828 131.928 45.3498 131.87 45.3294C131.812 45.309 131.75 45.3018 131.689 45.3082C131.314 45.3082 130.761 45.8865 130.04 47.0347C129.545 47.738 129.153 48.5069 128.873 49.3189C129.637 48.9648 130.327 48.4693 130.905 47.859C131.73 47.0661 132.142 46.3663 132.142 45.7593Z" fill="#E8BA77"/>
<path d="M148.046 49.4583C148.048 49.5499 148.022 49.64 147.972 49.7167C147.241 51.0262 146.198 51.681 144.843 51.681C143.338 51.681 142.444 50.9429 142.168 49.4706C141.584 50.4826 140.833 51.3894 139.946 52.1526C138.742 53.3132 137.798 53.8914 137.122 53.8914C136.218 53.8914 135.766 53.2366 135.766 51.9271C135.785 50.9625 136.002 50.0121 136.405 49.1344C136.374 49.167 136.349 49.2044 136.33 49.2451C136.061 49.8384 135.677 50.3734 135.201 50.8198C135.08 50.951 134.922 51.0426 134.747 51.0823C134.673 51.0823 134.636 51.0331 134.636 50.9306C134.636 50.7583 135.15 50.0338 136.178 48.7571C136.774 47.9707 137.417 47.2203 138.103 46.5098C138.305 46.3179 138.574 46.2107 138.853 46.2104C139.154 46.2104 139.307 46.3088 139.307 46.5098C139.293 46.6463 139.24 46.776 139.154 46.883C137.505 49.1603 136.681 50.9593 136.681 52.2797C136.681 52.8047 136.932 53.0671 137.435 53.0671C138.166 53.0671 139.046 52.467 140.073 51.2668C140.834 50.4175 141.48 49.4732 141.994 48.4577V48.2691C141.994 48.0968 141.994 47.859 141.957 47.5227C141.92 47.1864 141.916 46.9568 141.916 46.8092C141.916 45.3862 142.456 44.4717 143.536 44.0739C143.679 44.0072 143.833 43.9683 143.99 43.9591C144.315 43.9591 144.48 44.1846 144.48 44.6357C144.48 45.6855 144.003 46.9089 143.05 48.306V48.5315C143.028 49.1776 143.242 49.8096 143.652 50.3113C143.82 50.5664 144.049 50.7766 144.317 50.9238C144.586 51.0711 144.887 51.1508 145.193 51.1561C145.798 51.1561 146.401 50.8185 147.003 50.1432C147.318 49.8416 147.595 49.5028 147.827 49.1344C147.972 49.1303 148.046 49.241 148.046 49.4583Z" fill="#E8BA77"/>
<path d="M155.355 49.7331C155.343 49.8125 155.317 49.8891 155.276 49.9586C154.535 51.043 153.573 51.9608 152.453 52.6529C151.12 53.5305 149.902 53.9679 148.8 53.9652C147.217 53.9652 146.426 52.9783 146.426 51.0044C146.426 49.7085 146.991 48.2814 148.12 46.7353C149.329 45.095 150.573 44.2748 151.851 44.2748C151.98 44.2758 152.106 44.3067 152.221 44.3651C152.335 44.4234 152.434 44.5077 152.51 44.6111C152.685 44.8073 152.784 45.0586 152.791 45.3205C152.791 46.0942 152.201 47.032 151.022 48.1338C150.193 48.9593 149.214 49.6204 148.137 50.0817C147.978 50.5924 147.889 51.1221 147.873 51.6564C147.873 52.6816 148.339 53.1901 149.266 53.1901C150.343 53.1224 151.377 52.7449 152.242 52.1034C153.159 51.5155 153.984 50.797 154.691 49.9709C154.868 49.7208 155.042 49.5937 155.219 49.5937C155.237 49.5937 155.255 49.5973 155.272 49.6043C155.289 49.6114 155.304 49.6217 155.316 49.6347C155.329 49.6477 155.339 49.6632 155.346 49.68C155.352 49.6969 155.355 49.715 155.355 49.7331ZM151.645 45.7593C151.651 45.6985 151.644 45.637 151.623 45.5793C151.603 45.5217 151.57 45.4693 151.526 45.4261C151.483 45.3828 151.43 45.3498 151.372 45.3294C151.314 45.309 151.252 45.3018 151.191 45.3082C150.816 45.3082 150.264 45.8865 149.542 47.0347C149.05 47.739 148.657 48.5076 148.376 49.3189C149.141 48.9639 149.832 48.4686 150.412 47.859C151.248 47.0661 151.664 46.3663 151.661 45.7593H151.645Z" fill="#E8BA77"/>
<path d="M166.015 49.3148C165.996 49.54 165.917 49.7563 165.788 49.9422C164.076 52.7254 162.305 54.1169 160.475 54.1169C159.043 54.1169 158.327 53.2271 158.327 51.4473C158.298 49.9784 158.676 48.5299 159.419 47.2603C157.355 49.1985 155.546 51.3895 154.036 53.7807C153.883 54.0021 153.772 54.1169 153.694 54.1169C153.471 54.1169 153.356 53.8873 153.356 53.4362C153.35 53.3301 153.376 53.2247 153.43 53.1327C154.108 51.3471 154.659 49.5163 155.079 47.6539C155.153 47.2439 155.277 46.6615 155.454 45.8783C155.574 45.6545 155.757 45.4706 155.981 45.3492C156.203 45.192 156.464 45.101 156.736 45.0868C156.909 45.0868 157 45.1606 157 45.3123C157 45.5666 156.409 47.4899 155.227 51.0823C155.527 50.6804 156.468 49.6183 158.051 47.8959C158.578 47.2972 159.358 46.4483 160.388 45.3492C160.549 45.1903 160.764 45.0967 160.99 45.0868C161.108 45.0704 161.227 45.0814 161.34 45.1189C161.452 45.1564 161.555 45.2193 161.639 45.3028C161.722 45.3863 161.786 45.488 161.823 45.6C161.861 45.7119 161.872 45.8311 161.856 45.948C161.845 46.107 161.794 46.2608 161.707 46.395C160.3 48.6969 159.597 50.5218 159.597 51.8697C159.597 52.8156 160.049 53.2899 160.953 53.2927C161.658 53.2927 162.408 52.9318 163.212 52.2059C163.878 51.5994 164.472 50.9198 164.985 50.1801C165.512 49.4583 165.809 49.0934 165.887 49.0934C165.966 49.0934 166.015 49.1672 166.015 49.3148Z" fill="#E8BA77"/>
<path d="M174 49.4706C173.987 49.6071 173.934 49.7368 173.847 49.8438C172.993 50.9306 171.962 51.8675 170.797 52.616C169.263 53.6412 168.008 54.1538 167.029 54.1538C165.6 54.1538 164.884 53.1177 164.881 51.0454C164.934 49.2404 165.398 47.4709 166.238 45.87C164.482 45.87 163.604 45.5461 163.604 44.8981C163.604 44.7464 163.727 44.6726 163.979 44.6726C164.23 44.6726 164.758 44.6972 165.409 44.7464C166.06 44.7956 166.555 44.8243 166.881 44.8243C167.029 44.5728 167.579 43.5736 168.53 41.8266C169.255 40.4528 169.861 39.5506 170.335 39.1282C170.532 38.9458 170.764 38.8053 171.017 38.715C171.27 38.6248 171.539 38.5867 171.807 38.6033C172.359 38.6033 172.631 38.714 172.631 38.9395C172.627 38.9786 172.614 39.0163 172.594 39.0503C172.24 39.5014 171.741 40.137 171.086 40.9613C170.118 42.2338 169.225 43.5606 168.41 44.935C168.765 44.9596 169.263 44.972 169.919 44.972C170.092 44.972 170.356 44.9596 170.71 44.935H171.502C171.803 44.935 171.951 45.0089 171.951 45.1606C171.951 45.5338 170.649 45.7593 168.035 45.8331C167.546 46.6556 167.166 47.5378 166.906 48.4577C166.594 49.3511 166.417 50.2852 166.378 51.2299C166.378 52.5285 166.867 53.1778 167.845 53.1778C168.67 53.1778 169.688 52.7541 170.9 51.9066C171.829 51.2726 172.655 50.5009 173.349 49.6183C173.522 49.3927 173.687 49.282 173.835 49.282C173.984 49.282 174 49.3435 174 49.4706Z" fill="#E8BA77"/>
<path d="M89.5175 41.5272V30.1432L84.5707 38.9026H83.4123L78.4656 30.1432V41.5272H76.5487V26.6123H78.5521L83.9812 36.2986L89.4268 26.6123H91.4137V41.5272H89.5175Z" fill="white"/>
<path d="M95.0043 41.5272V26.6123H96.9088V41.5272H95.0043Z" fill="white"/>
<path d="M100.495 41.5272V26.6123H106.918C107.546 26.6065 108.167 26.7469 108.732 27.0224C109.276 27.2946 109.764 27.666 110.17 28.1173C110.574 28.5677 110.895 29.0855 111.118 29.6469C111.341 30.1985 111.456 30.7873 111.456 31.3816C111.458 32.0531 111.325 32.7182 111.065 33.3377C110.817 33.9347 110.443 34.4717 109.968 34.9125C109.501 35.3429 108.935 35.6527 108.319 35.8147L111.943 41.5272H109.787L106.365 36.1714H102.396V41.5272H100.495ZM102.396 34.4901H106.93C107.419 34.4999 107.897 34.3485 108.29 34.0595C108.687 33.762 108.999 33.368 109.197 32.9153C109.418 32.4339 109.53 31.9106 109.527 31.3816C109.532 30.8442 109.401 30.3142 109.148 29.8397C108.913 29.3909 108.572 29.0054 108.154 28.716C107.758 28.4425 107.285 28.2992 106.802 28.3059H102.396V34.4901Z" fill="white"/>
<path d="M118.951 26.6123H120.558L126.68 41.5272H124.652L122.974 37.1598H116.502L114.828 41.5272H112.8L118.951 26.6123ZM122.405 35.6875L119.755 28.7981L117.092 35.6875H122.405Z" fill="white"/>
<path d="M134.137 41.6338C133.18 41.6404 132.235 41.4212 131.379 40.9941C130.531 40.5702 129.775 39.985 129.153 39.2717C128.52 38.551 128.019 37.7251 127.674 36.8317C127.324 35.9388 127.145 34.9889 127.146 34.0308C127.136 32.0885 127.846 30.2107 129.141 28.7571C129.76 28.0649 130.514 27.5065 131.359 27.1167C132.228 26.7124 133.178 26.5077 134.137 26.518C135.397 26.4682 136.643 26.7815 137.728 27.4202C138.643 27.9938 139.381 28.8086 139.859 29.7741L138.404 30.7829C138.019 29.9691 137.392 29.2932 136.607 28.8473C135.838 28.427 134.973 28.2109 134.096 28.2198C133.38 28.2123 132.673 28.3769 132.035 28.6996C131.417 29.0219 130.875 29.4705 130.444 30.016C129.994 30.576 129.651 31.2123 129.43 31.8942C129.195 32.5991 129.076 33.3373 129.079 34.08C129.082 34.8501 129.221 35.6138 129.491 36.3355C129.739 37.023 130.115 37.6576 130.6 38.2055C131.06 38.7341 131.62 39.1663 132.249 39.4768C132.891 39.7884 133.597 39.947 134.31 39.9402C135.17 39.9396 136.014 39.7148 136.759 39.2881C137.618 38.7769 138.365 38.0991 138.956 37.2951V39.2471C137.588 40.8383 135.981 41.6338 134.137 41.6338ZM138.697 35.5194H135.469V34.0923H140.304V41.5272H138.697V35.5194Z" fill="white"/>
<path d="M153.372 39.8458V41.5272H143.194V26.6123H153.166V28.2936H145.094V33.1368H152.127V34.7115H145.094V39.8582L153.372 39.8458Z" fill="white"/>
<path d="M89.5175 41.5272V30.1432L84.5707 38.9026H83.4123L78.4656 30.1432V41.5272H76.5487V26.6123H78.5521L83.9812 36.2986L89.4268 26.6123H91.4137V41.5272H89.5175Z" fill="#E8BA77"/>
<path d="M95.0043 41.5272V26.6123H96.9088V41.5272H95.0043Z" fill="#E8BA77"/>
<path d="M100.495 41.5272V26.6123H106.918C107.546 26.6065 108.167 26.7469 108.732 27.0224C109.276 27.2946 109.764 27.666 110.17 28.1173C110.574 28.5677 110.895 29.0855 111.118 29.6469C111.341 30.1985 111.456 30.7873 111.456 31.3816C111.458 32.0531 111.325 32.7182 111.065 33.3377C110.817 33.9347 110.443 34.4717 109.968 34.9125C109.501 35.3429 108.935 35.6527 108.319 35.8147L111.943 41.5272H109.787L106.365 36.1714H102.396V41.5272H100.495ZM102.396 34.4901H106.93C107.419 34.4999 107.897 34.3485 108.29 34.0595C108.687 33.762 108.999 33.368 109.197 32.9153C109.418 32.4339 109.53 31.9106 109.527 31.3816C109.532 30.8442 109.401 30.3142 109.148 29.8397C108.913 29.3909 108.572 29.0054 108.154 28.716C107.758 28.4425 107.285 28.2992 106.802 28.3059H102.396V34.4901Z" fill="#E8BA77"/>
<path d="M118.951 26.6123H120.558L126.68 41.5272H124.652L122.974 37.1598H116.502L114.828 41.5272H112.8L118.951 26.6123ZM122.405 35.6875L119.755 28.7981L117.092 35.6875H122.405Z" fill="#E8BA77"/>
<path d="M134.137 41.6338C133.18 41.6404 132.235 41.4212 131.379 40.9941C130.531 40.5702 129.775 39.985 129.153 39.2717C128.52 38.551 128.019 37.7251 127.674 36.8317C127.324 35.9388 127.145 34.9889 127.146 34.0308C127.136 32.0885 127.846 30.2107 129.141 28.7571C129.76 28.0649 130.514 27.5065 131.359 27.1167C132.228 26.7124 133.178 26.5077 134.137 26.518C135.397 26.4682 136.643 26.7815 137.728 27.4202C138.643 27.9938 139.381 28.8086 139.859 29.7741L138.404 30.7829C138.019 29.9691 137.392 29.2932 136.607 28.8473C135.838 28.427 134.973 28.2109 134.096 28.2198C133.38 28.2123 132.673 28.3769 132.035 28.6996C131.417 29.0219 130.875 29.4705 130.444 30.016C129.994 30.576 129.651 31.2123 129.43 31.8942C129.195 32.5991 129.076 33.3373 129.079 34.08C129.082 34.8501 129.221 35.6138 129.491 36.3355C129.739 37.023 130.115 37.6576 130.6 38.2055C131.06 38.7341 131.62 39.1663 132.249 39.4768C132.891 39.7884 133.597 39.947 134.31 39.9402C135.17 39.9396 136.014 39.7148 136.759 39.2881C137.618 38.7769 138.365 38.0991 138.956 37.2951V39.2471C137.588 40.8383 135.981 41.6338 134.137 41.6338ZM138.697 35.5194H135.469V34.0923H140.304V41.5272H138.697V35.5194Z" fill="#E8BA77"/>
<path d="M153.372 39.8458V41.5272H143.194V26.6123H153.166V28.2936H145.094V33.1368H152.127V34.7115H145.094V39.8582L153.372 39.8458Z" fill="#E8BA77"/>
</svg>
