<svg width="70" height="70" viewBox="0 0 70 70" fill="none" xmlns="http://www.w3.org/2000/svg">
<g clip-path="url(#clip0_324_8962)">
<path d="M41.8207 40.722V25.9671L35.4637 37.3182H33.972L27.5868 25.9671V40.722H25.1426V21.3953H27.71L34.6909 33.9427L41.7 21.3953H44.252V40.722H41.8207Z" fill="white"/>
<path d="M41.8207 40.722V25.9671L35.4637 37.3182H33.972L27.5868 25.9671V40.722H25.1426V21.3953H27.71L34.6909 33.9427L41.7 21.3953H44.252V40.722H41.8207Z" fill="#E8BA77"/>
<path d="M28.5159 46.0734C28.5112 46.1114 28.4989 46.1482 28.4799 46.1814C28.1247 46.7029 27.6658 47.1452 27.132 47.4807C26.6235 47.8564 26.0169 48.0754 25.3861 48.111C24.6313 48.111 24.2539 47.6359 24.2539 46.6857C24.2539 46.0631 24.5107 45.3762 25.0627 44.6275C25.6378 43.8316 26.2308 43.4346 26.8419 43.4363C26.9034 43.4372 26.9639 43.4523 27.0187 43.4804C27.0734 43.5085 27.121 43.5489 27.1577 43.5984C27.2428 43.6932 27.2911 43.8156 27.2938 43.9431C27.2938 44.3136 27.0113 44.7638 26.4465 45.2938C26.0497 45.6923 25.5798 46.0103 25.0627 46.2303C24.9872 46.4757 24.9449 46.7301 24.9368 46.9867C24.9368 47.4807 25.1576 47.7277 25.6018 47.7277C26.1156 47.6977 26.6097 47.5189 27.0242 47.2131C27.4618 46.9293 27.8554 46.5825 28.1924 46.184C28.2745 46.0657 28.3592 46.0039 28.4491 46.0039C28.4582 46.0035 28.4673 46.0051 28.4757 46.0085C28.4842 46.0119 28.4918 46.017 28.4981 46.0236C28.5044 46.0301 28.5093 46.038 28.5123 46.0466C28.5154 46.0552 28.5166 46.0643 28.5159 46.0734ZM26.752 44.1644C26.7563 44.135 26.7537 44.105 26.7444 44.0768C26.7351 44.0486 26.7194 44.023 26.6984 44.002C26.6775 43.981 26.6519 43.9652 26.6237 43.9559C26.5956 43.9465 26.5657 43.9439 26.5364 43.9483C26.3566 43.9483 26.0948 44.2236 25.7456 44.7767C25.5094 45.1149 25.3219 45.4847 25.1885 45.8753C25.5537 45.7053 25.8831 45.4669 26.1589 45.1729C26.5543 44.787 26.752 44.4525 26.752 44.1644Z" fill="white"/>
<path d="M34.3445 45.9422C34.3451 45.986 34.3326 46.0291 34.3085 46.0657C34.1761 46.3501 33.9648 46.5904 33.6998 46.7578C33.4349 46.9252 33.1275 47.0127 32.8143 47.0099C32.6602 47.0259 32.5044 47.0109 32.3561 46.9659C32.2078 46.921 32.0699 46.8469 31.9504 46.748C31.8309 46.6491 31.7323 46.5274 31.6602 46.39C31.5881 46.2525 31.5441 46.102 31.5306 45.9473C31.251 46.433 30.8917 46.8679 30.4677 47.2337C29.8925 47.7895 29.4407 48.0699 29.1197 48.0699C28.6884 48.0699 28.4728 47.7534 28.4728 47.1257C28.4809 46.6608 28.5849 46.2027 28.7783 45.7801C28.7641 45.7965 28.752 45.8147 28.7423 45.8341C28.6139 46.1193 28.4307 46.3763 28.2032 46.5905C28.1458 46.6536 28.0705 46.6976 27.9875 46.7166C27.9516 46.7166 27.9336 46.6935 27.9336 46.6446C27.9336 46.5957 28.1903 46.2123 28.6704 45.6C28.9541 45.2217 29.2602 44.8609 29.587 44.5195C29.6835 44.4263 29.8125 44.3746 29.9465 44.3754C30.0902 44.3754 30.1621 44.4217 30.1621 44.5195C30.1557 44.5851 30.1308 44.6476 30.0902 44.6995C29.2995 45.7938 28.9041 46.6583 28.9041 47.2929C28.9041 47.5502 29.0248 47.6737 29.2635 47.6737C29.6101 47.6737 30.0338 47.383 30.5216 46.8067C30.8866 46.3994 31.1957 45.9452 31.4407 45.4559V45.3659C31.4407 45.281 31.4407 45.1626 31.4227 45.0057C31.4048 44.8488 31.4048 44.7484 31.4048 44.6635C31.4048 43.9775 31.6615 43.5384 32.175 43.3463C32.2427 43.3143 32.3159 43.296 32.3907 43.2922C32.5473 43.2922 32.6243 43.4003 32.6243 43.6164C32.6243 44.131 32.3958 44.7098 31.9414 45.3839V45.492C31.9325 45.8027 32.0344 46.1065 32.2289 46.3487C32.3096 46.4711 32.4189 46.5718 32.5474 46.6422C32.6758 46.7126 32.8194 46.7505 32.9658 46.7526C33.1359 46.7379 33.3008 46.687 33.4496 46.6031C33.5984 46.5192 33.7276 46.4044 33.8284 46.2664C33.9796 46.1204 34.1132 45.9572 34.2264 45.7801C34.3085 45.7956 34.3445 45.8367 34.3445 45.9422Z" fill="white"/>
<path d="M37.8303 46.0734C37.8265 46.1116 37.8143 46.1486 37.7944 46.1814C37.4405 46.7041 36.9814 47.1467 36.4465 47.4807C35.9389 47.8563 35.3331 48.0753 34.7032 48.111C33.9466 48.111 33.5684 47.6359 33.5684 46.6857C33.5684 46.0631 33.8379 45.3762 34.3771 44.6275C34.9556 43.8316 35.5496 43.4346 36.1589 43.4363C36.2204 43.4372 36.2809 43.4523 36.3357 43.4804C36.3905 43.5085 36.438 43.5489 36.4747 43.5984C36.5591 43.6935 36.6065 43.8159 36.6082 43.9431C36.6082 44.3136 36.3266 44.7638 35.7635 45.2938C35.3662 45.693 34.8954 46.011 34.3771 46.2303C34.3029 46.476 34.2606 46.7302 34.2513 46.9867C34.2513 47.4807 34.4747 47.7277 34.9188 47.7277C35.4318 47.6975 35.925 47.5187 36.3386 47.2131C36.7767 46.93 37.1704 46.5831 37.5068 46.184C37.5915 46.0657 37.6763 46.0039 37.7636 46.0039C37.7726 46.0035 37.7817 46.0051 37.7902 46.0085C37.7986 46.0119 37.8063 46.017 37.8126 46.0236C37.8189 46.0301 37.8237 46.038 37.8268 46.0466C37.8298 46.0552 37.831 46.0643 37.8303 46.0734ZM36.069 44.1644C36.0734 44.135 36.0708 44.105 36.0615 44.0768C36.0521 44.0486 36.0364 44.023 36.0154 44.002C35.9945 43.981 35.9689 43.9652 35.9408 43.9559C35.9126 43.9465 35.8827 43.9439 35.8534 43.9483C35.6737 43.9483 35.4101 44.2244 35.0626 44.7767C34.8264 45.1149 34.6389 45.4847 34.5055 45.8753C34.8707 45.7053 35.2001 45.4669 35.476 45.1729C35.8714 44.787 36.069 44.4525 36.069 44.1644Z" fill="white"/>
<path d="M42.9224 45.8727C42.9141 45.9817 42.8769 46.0866 42.8145 46.1763C41.9981 47.5141 41.1525 48.1831 40.2779 48.1831C39.595 48.1831 39.2509 47.7534 39.2509 46.8967C39.2333 46.1906 39.4111 45.4934 39.7644 44.8822C38.7802 45.815 37.9175 46.8688 37.197 48.0184C37.1251 48.1265 37.0712 48.1805 37.0352 48.1805C36.9274 48.1805 36.8735 48.0699 36.8735 47.8538C36.8705 47.8024 36.8831 47.7513 36.9094 47.7071C37.2351 46.8489 37.4994 45.9685 37.7002 45.0726C37.7361 44.877 37.7977 44.594 37.8799 44.2184C37.9385 44.1093 38.0278 44.0199 38.1366 43.9611C38.2429 43.8851 38.3683 43.8405 38.4987 43.8325C38.5808 43.8325 38.6245 43.8711 38.6245 43.9431C38.6245 44.0632 38.342 44.9877 37.7772 46.7166C37.921 46.5262 38.3728 46.0142 39.1277 45.1858C39.3844 44.8976 39.749 44.4886 40.2419 43.9586C40.3194 43.8831 40.4216 43.8383 40.5295 43.8325C40.5859 43.8242 40.6435 43.8293 40.6976 43.8473C40.7517 43.8654 40.8009 43.8959 40.8411 43.9364C40.8813 43.977 40.9114 44.0264 40.9291 44.0807C40.9468 44.1351 40.9515 44.1928 40.9429 44.2493C40.9377 44.3263 40.9129 44.4007 40.871 44.4654C40.2017 45.5683 39.8662 46.4447 39.8645 47.0948C39.8645 47.5527 40.0802 47.7817 40.5115 47.7817C40.9221 47.7499 41.3064 47.5665 41.5899 47.2672C41.9085 46.9766 42.1928 46.6503 42.4371 46.2946C42.5543 46.1024 42.6997 45.9289 42.8684 45.7801C42.9044 45.7672 42.9224 45.7955 42.9224 45.8727Z" fill="white"/>
<path d="M46.7271 45.9473C46.7212 46.013 46.6962 46.0756 46.6553 46.1274C46.2457 46.6497 45.753 47.1009 45.197 47.4626C44.4678 47.954 43.867 48.201 43.3997 48.201C42.7151 48.201 42.3728 47.7019 42.3728 46.7037C42.3973 45.8368 42.6186 44.9868 43.0198 44.2184C42.1811 44.2184 41.7617 44.0614 41.7617 43.7475C41.7617 43.6755 41.8208 43.6395 41.9414 43.6395C42.0621 43.6395 42.3112 43.6395 42.6244 43.6755C42.9376 43.7115 43.1687 43.7115 43.3253 43.7115C43.3972 43.5932 43.6608 43.1129 44.1161 42.2708C44.3372 41.8008 44.628 41.3671 44.9787 40.9844C45.0724 40.8958 45.1831 40.8274 45.304 40.7831C45.425 40.7389 45.5536 40.7198 45.6822 40.7271C45.9389 40.7271 46.0776 40.7811 46.0776 40.8892C46.0741 40.9079 46.068 40.9261 46.0596 40.9432L45.3407 41.8617C44.8754 42.4719 44.4467 43.1094 44.057 43.7707C44.2265 43.7707 44.4652 43.7887 44.7759 43.7887C44.8606 43.7887 44.9864 43.7887 45.1533 43.7707H45.5333C45.6771 43.7707 45.749 43.8067 45.749 43.8788C45.749 44.0623 45.1251 44.1712 43.8773 44.2055C43.6431 44.6002 43.4618 45.024 43.3381 45.4662C43.1877 45.8953 43.1012 46.3444 43.0814 46.7989C43.0814 47.4249 43.315 47.7379 43.7823 47.7379C44.1777 47.7379 44.6629 47.533 45.238 47.123C45.6836 46.821 46.0787 46.4502 46.4088 46.0245C46.4909 45.9164 46.5705 45.8624 46.6424 45.8624C46.7143 45.8624 46.7271 45.8881 46.7271 45.9473Z" fill="white"/>
<path d="M28.5159 46.0734C28.5112 46.1114 28.4989 46.1482 28.4799 46.1814C28.1247 46.7029 27.6658 47.1452 27.132 47.4807C26.6235 47.8564 26.0169 48.0754 25.3861 48.111C24.6313 48.111 24.2539 47.6359 24.2539 46.6857C24.2539 46.0631 24.5107 45.3762 25.0627 44.6275C25.6378 43.8316 26.2308 43.4346 26.8419 43.4363C26.9034 43.4372 26.9639 43.4523 27.0187 43.4804C27.0734 43.5085 27.121 43.5489 27.1577 43.5984C27.2428 43.6932 27.2911 43.8156 27.2938 43.9431C27.2938 44.3136 27.0113 44.7638 26.4465 45.2938C26.0497 45.6923 25.5798 46.0103 25.0627 46.2303C24.9872 46.4757 24.9449 46.7301 24.9368 46.9867C24.9368 47.4807 25.1576 47.7277 25.6018 47.7277C26.1156 47.6977 26.6097 47.5189 27.0242 47.2131C27.4618 46.9293 27.8554 46.5825 28.1924 46.184C28.2745 46.0657 28.3592 46.0039 28.4491 46.0039C28.4582 46.0035 28.4673 46.0051 28.4757 46.0085C28.4842 46.0119 28.4918 46.017 28.4981 46.0236C28.5044 46.0301 28.5093 46.038 28.5123 46.0466C28.5154 46.0552 28.5166 46.0643 28.5159 46.0734ZM26.752 44.1644C26.7563 44.135 26.7537 44.105 26.7444 44.0768C26.7351 44.0486 26.7194 44.023 26.6984 44.002C26.6775 43.981 26.6519 43.9652 26.6237 43.9559C26.5956 43.9465 26.5657 43.9439 26.5364 43.9483C26.3566 43.9483 26.0948 44.2236 25.7456 44.7767C25.5094 45.1149 25.3219 45.4847 25.1885 45.8753C25.5537 45.7053 25.8831 45.4669 26.1589 45.1729C26.5543 44.787 26.752 44.4525 26.752 44.1644Z" fill="#E8BA77"/>
<path d="M34.3445 45.9422C34.3451 45.986 34.3326 46.0291 34.3085 46.0657C34.1761 46.3501 33.9648 46.5904 33.6998 46.7578C33.4349 46.9252 33.1275 47.0127 32.8143 47.0099C32.6602 47.0259 32.5044 47.0109 32.3561 46.9659C32.2078 46.921 32.0699 46.8469 31.9504 46.748C31.8309 46.6491 31.7323 46.5274 31.6602 46.39C31.5881 46.2525 31.5441 46.102 31.5306 45.9473C31.251 46.433 30.8917 46.8679 30.4677 47.2337C29.8925 47.7895 29.4407 48.0699 29.1197 48.0699C28.6884 48.0699 28.4728 47.7534 28.4728 47.1257C28.4809 46.6608 28.5849 46.2027 28.7783 45.7801C28.7641 45.7965 28.752 45.8147 28.7423 45.8341C28.6139 46.1193 28.4307 46.3763 28.2032 46.5905C28.1458 46.6536 28.0705 46.6976 27.9875 46.7166C27.9516 46.7166 27.9336 46.6935 27.9336 46.6446C27.9336 46.5957 28.1903 46.2123 28.6704 45.6C28.9541 45.2217 29.2602 44.8609 29.587 44.5195C29.6835 44.4263 29.8125 44.3746 29.9465 44.3754C30.0902 44.3754 30.1621 44.4217 30.1621 44.5195C30.1557 44.5851 30.1308 44.6476 30.0902 44.6995C29.2995 45.7938 28.9041 46.6583 28.9041 47.2929C28.9041 47.5502 29.0248 47.6737 29.2635 47.6737C29.6101 47.6737 30.0338 47.383 30.5216 46.8067C30.8866 46.3994 31.1957 45.9452 31.4407 45.4559V45.3659C31.4407 45.281 31.4407 45.1626 31.4227 45.0057C31.4048 44.8488 31.4048 44.7484 31.4048 44.6635C31.4048 43.9775 31.6615 43.5384 32.175 43.3463C32.2427 43.3143 32.3159 43.296 32.3907 43.2922C32.5473 43.2922 32.6243 43.4003 32.6243 43.6164C32.6243 44.131 32.3958 44.7098 31.9414 45.3839V45.492C31.9325 45.8027 32.0344 46.1065 32.2289 46.3487C32.3096 46.4711 32.4189 46.5718 32.5474 46.6422C32.6758 46.7126 32.8194 46.7505 32.9658 46.7526C33.1359 46.7379 33.3008 46.687 33.4496 46.6031C33.5984 46.5192 33.7276 46.4044 33.8284 46.2664C33.9796 46.1204 34.1132 45.9572 34.2264 45.7801C34.3085 45.7956 34.3445 45.8367 34.3445 45.9422Z" fill="#E8BA77"/>
<path d="M37.8303 46.0734C37.8265 46.1116 37.8143 46.1486 37.7944 46.1814C37.4405 46.7041 36.9814 47.1467 36.4465 47.4807C35.9389 47.8563 35.3331 48.0753 34.7032 48.111C33.9466 48.111 33.5684 47.6359 33.5684 46.6857C33.5684 46.0631 33.8379 45.3762 34.3771 44.6275C34.9556 43.8316 35.5496 43.4346 36.1589 43.4363C36.2204 43.4372 36.2809 43.4523 36.3357 43.4804C36.3905 43.5085 36.438 43.5489 36.4747 43.5984C36.5591 43.6935 36.6065 43.8159 36.6082 43.9431C36.6082 44.3136 36.3266 44.7638 35.7635 45.2938C35.3662 45.693 34.8954 46.011 34.3771 46.2303C34.3029 46.476 34.2606 46.7302 34.2513 46.9867C34.2513 47.4807 34.4747 47.7277 34.9188 47.7277C35.4318 47.6975 35.925 47.5187 36.3386 47.2131C36.7767 46.93 37.1704 46.5831 37.5068 46.184C37.5915 46.0657 37.6763 46.0039 37.7636 46.0039C37.7726 46.0035 37.7817 46.0051 37.7902 46.0085C37.7986 46.0119 37.8063 46.017 37.8126 46.0236C37.8189 46.0301 37.8237 46.038 37.8268 46.0466C37.8298 46.0552 37.831 46.0643 37.8303 46.0734ZM36.069 44.1644C36.0734 44.135 36.0708 44.105 36.0615 44.0768C36.0521 44.0486 36.0364 44.023 36.0154 44.002C35.9945 43.981 35.9689 43.9652 35.9408 43.9559C35.9126 43.9465 35.8827 43.9439 35.8534 43.9483C35.6737 43.9483 35.4101 44.2244 35.0626 44.7767C34.8264 45.1149 34.6389 45.4847 34.5055 45.8753C34.8707 45.7053 35.2001 45.4669 35.476 45.1729C35.8714 44.787 36.069 44.4525 36.069 44.1644Z" fill="#E8BA77"/>
<path d="M42.9224 45.8727C42.9141 45.9817 42.8769 46.0866 42.8145 46.1763C41.9981 47.5141 41.1525 48.1831 40.2779 48.1831C39.595 48.1831 39.2509 47.7534 39.2509 46.8967C39.2333 46.1906 39.4111 45.4934 39.7644 44.8822C38.7802 45.815 37.9175 46.8688 37.197 48.0184C37.1251 48.1265 37.0712 48.1805 37.0352 48.1805C36.9274 48.1805 36.8735 48.0699 36.8735 47.8538C36.8705 47.8024 36.8831 47.7513 36.9094 47.7071C37.2351 46.8489 37.4994 45.9685 37.7002 45.0726C37.7361 44.877 37.7977 44.594 37.8799 44.2184C37.9385 44.1093 38.0278 44.0199 38.1366 43.9611C38.2429 43.8851 38.3683 43.8405 38.4987 43.8325C38.5808 43.8325 38.6245 43.8711 38.6245 43.9431C38.6245 44.0632 38.342 44.9877 37.7772 46.7166C37.921 46.5262 38.3728 46.0142 39.1277 45.1858C39.3844 44.8976 39.749 44.4886 40.2419 43.9586C40.3194 43.8831 40.4216 43.8383 40.5295 43.8325C40.5859 43.8242 40.6435 43.8293 40.6976 43.8473C40.7517 43.8654 40.8009 43.8959 40.8411 43.9364C40.8813 43.977 40.9114 44.0264 40.9291 44.0807C40.9468 44.1351 40.9515 44.1928 40.9429 44.2493C40.9377 44.3263 40.9129 44.4007 40.871 44.4654C40.2017 45.5683 39.8662 46.4447 39.8645 47.0948C39.8645 47.5527 40.0802 47.7817 40.5115 47.7817C40.9221 47.7499 41.3064 47.5665 41.5899 47.2672C41.9085 46.9766 42.1928 46.6503 42.4371 46.2946C42.5543 46.1024 42.6997 45.9289 42.8684 45.7801C42.9044 45.7672 42.9224 45.7955 42.9224 45.8727Z" fill="#E8BA77"/>
<path d="M46.7271 45.9473C46.7212 46.013 46.6962 46.0756 46.6553 46.1274C46.2457 46.6497 45.753 47.1009 45.197 47.4626C44.4678 47.954 43.867 48.201 43.3997 48.201C42.7151 48.201 42.3728 47.7019 42.3728 46.7037C42.3973 45.8368 42.6186 44.9868 43.0198 44.2184C42.1811 44.2184 41.7617 44.0614 41.7617 43.7475C41.7617 43.6755 41.8208 43.6395 41.9414 43.6395C42.0621 43.6395 42.3112 43.6395 42.6244 43.6755C42.9376 43.7115 43.1687 43.7115 43.3253 43.7115C43.3972 43.5932 43.6608 43.1129 44.1161 42.2708C44.3372 41.8008 44.628 41.3671 44.9787 40.9844C45.0724 40.8958 45.1831 40.8274 45.304 40.7831C45.425 40.7389 45.5536 40.7198 45.6822 40.7271C45.9389 40.7271 46.0776 40.7811 46.0776 40.8892C46.0741 40.9079 46.068 40.9261 46.0596 40.9432L45.3407 41.8617C44.8754 42.4719 44.4467 43.1094 44.057 43.7707C44.2265 43.7707 44.4652 43.7887 44.7759 43.7887C44.8606 43.7887 44.9864 43.7887 45.1533 43.7707H45.5333C45.6771 43.7707 45.749 43.8067 45.749 43.8788C45.749 44.0623 45.1251 44.1712 43.8773 44.2055C43.6431 44.6002 43.4618 45.024 43.3381 45.4662C43.1877 45.8953 43.1012 46.3444 43.0814 46.7989C43.0814 47.4249 43.315 47.7379 43.7823 47.7379C44.1777 47.7379 44.6629 47.533 45.238 47.123C45.6836 46.821 46.0787 46.4502 46.4088 46.0245C46.4909 45.9164 46.5705 45.8624 46.6424 45.8624C46.7143 45.8624 46.7271 45.8881 46.7271 45.9473Z" fill="#E8BA77"/>
<path d="M34.6348 0C15.5381 0 0 15.5705 0 34.7068C0 53.8432 15.5381 69.4137 34.6348 69.4137C53.7314 69.4137 69.2695 53.8432 69.2695 34.7068C69.2695 15.5705 53.7314 0 34.6348 0ZM61.5929 55.0575L59.218 48.9369L65.7111 47.9361C64.6314 50.4694 63.2467 52.861 61.5878 55.0575H61.5929ZM66.0962 46.9842L58.5376 48.1393C58.4727 48.1497 58.4108 48.1745 58.3566 48.2119C58.3024 48.2493 58.2573 48.2983 58.2244 48.3554C58.1915 48.4123 58.1719 48.4758 58.167 48.5413C58.1621 48.6068 58.1721 48.6726 58.1962 48.7336L60.9587 55.8551C60.3254 56.6475 59.657 57.4099 58.9536 58.1423L54.2654 46.0657L67.0692 44.0924C66.7851 45.0734 66.4591 46.0339 66.091 46.9739L66.0962 46.9842ZM55.7391 61.0856L48.6325 58.3173C48.5715 58.2931 48.5059 58.2831 48.4405 58.288C48.3751 58.2929 48.3117 58.3126 48.255 58.3456C48.198 58.3785 48.1491 58.4237 48.1118 58.4781C48.0744 58.5324 48.0497 58.5943 48.0394 58.6594L46.8763 66.2286C45.9366 66.5973 44.9781 66.9241 44.0008 67.2088L45.97 54.3783L58.0242 59.0762C57.2899 59.7812 56.5282 60.451 55.7391 61.0856ZM54.9432 61.7159C52.7504 63.3729 50.3639 64.7553 47.8365 65.8324L48.8353 59.3258L54.9432 61.7159ZM39.7722 68.1479L34.9865 62.1713C34.9434 62.1229 34.8906 62.0842 34.8315 62.0577C34.7725 62.0312 34.7085 62.0176 34.6438 62.0176C34.579 62.0176 34.5151 62.0312 34.456 62.0577C34.3969 62.0842 34.3441 62.1229 34.301 62.1713L29.5153 68.1479C28.5089 67.9935 27.517 67.7945 26.5396 67.551L34.645 57.4271L42.7504 67.551C41.768 67.798 40.7718 67.9952 39.7619 68.1427L39.7722 68.1479ZM22.4009 66.2337L21.2302 58.6594C21.2198 58.5943 21.1951 58.5324 21.1578 58.4781C21.1205 58.4237 21.0715 58.3785 21.0145 58.3456C20.9578 58.3126 20.8944 58.2929 20.829 58.288C20.7637 58.2831 20.698 58.2931 20.6371 58.3173L13.5304 61.0856C12.7396 60.451 11.9788 59.7812 11.248 59.0762L23.2995 54.3783L25.2687 67.2088C24.2914 66.9241 23.332 66.5973 22.3906 66.2286L22.4009 66.2337ZM21.4535 65.8478C18.9262 64.7707 16.5397 63.3883 14.3469 61.7313L20.4548 59.3515L21.4535 65.8478ZM3.56361 47.9258L10.0567 48.9266L7.68178 55.0575C6.02392 52.8575 4.64092 50.4625 3.56361 47.9258ZM11.0734 48.7336C11.0947 48.674 11.1028 48.6104 11.097 48.5473C11.0913 48.4842 11.0718 48.4231 11.04 48.3683C11.0071 48.3112 10.962 48.2621 10.9078 48.2247C10.8536 48.1873 10.7917 48.1626 10.7268 48.1522L3.17079 46.9867C2.80621 46.0451 2.481 45.0846 2.19516 44.1052L14.9964 46.0785L10.316 58.1449C9.6125 57.4108 8.94411 56.6484 8.3108 55.8577L11.0734 48.7336ZM0.878065 34.7068C0.880586 33.3307 0.966325 31.9561 1.13481 30.5904L6.26969 34.7068L1.13481 38.8233C0.966325 37.4576 0.880586 36.0829 0.878065 34.7068ZM7.23248 35.049C7.28363 35.0079 7.32494 34.9558 7.35338 34.8966C7.38181 34.8374 7.39665 34.7725 7.3968 34.7068C7.39648 34.6408 7.38159 34.5756 7.35318 34.516C7.32477 34.4564 7.28355 34.4038 7.23248 34.3621L1.26832 29.5664C1.42236 28.5579 1.62091 27.5639 1.86396 26.5846L11.9668 34.7068L1.86396 42.8291C1.62262 41.8515 1.42407 40.8566 1.26832 39.8447L7.23248 35.049ZM7.68178 14.3664L10.0567 20.4871L3.56361 21.4879C4.64167 18.9548 6.02464 16.5632 7.68178 14.3664ZM3.17849 22.4372L10.7319 21.2743C10.796 21.2633 10.8568 21.2381 10.9101 21.2008C10.9633 21.1634 11.0077 21.1148 11.04 21.0582C11.0729 21.0014 11.0925 20.9379 11.0974 20.8724C11.1023 20.8069 11.0923 20.7411 11.0682 20.68L8.3108 13.5586C8.94582 12.7661 9.61421 12.0037 10.316 11.2714L15.0016 23.348L2.2003 25.3213C2.48614 24.342 2.8122 23.3806 3.17849 22.4372ZM13.5304 8.3281L20.6371 11.0964C20.6877 11.1168 20.7417 11.1272 20.7963 11.1273C20.901 11.1268 21.0021 11.089 21.0816 11.0206C21.1611 10.9523 21.2137 10.8579 21.2302 10.7542L22.3932 3.1851C23.3329 2.81634 24.2914 2.4896 25.2687 2.20487L23.2995 15.0328L11.248 10.3374C11.9788 9.6325 12.7396 8.96272 13.5304 8.3281ZM14.3366 7.69777C16.5294 6.04077 18.9159 4.65839 21.4433 3.58131L20.4445 10.0776L14.3366 7.69777ZM29.505 1.26581L34.2907 7.24238C34.3324 7.29356 34.3849 7.33487 34.4443 7.36334C34.5038 7.39181 34.5689 7.40673 34.6348 7.40704C34.7003 7.40689 34.7651 7.39203 34.8241 7.36353C34.8832 7.33504 34.9352 7.29364 34.9762 7.24238L39.7619 1.27095C40.7718 1.42532 41.7646 1.62428 42.7402 1.86784L34.6348 11.9917L26.5294 1.86784C27.4999 1.626 28.4917 1.42704 29.505 1.27095V1.26581ZM46.8763 3.17739L48.0394 10.7491C48.0558 10.8527 48.1085 10.9471 48.1879 11.0155C48.2674 11.0838 48.3686 11.1216 48.4733 11.1221C48.5278 11.1221 48.5818 11.1116 48.6325 11.0913L55.7391 8.3281C56.5299 8.96443 57.2907 9.63421 58.0216 10.3374L45.97 15.0328L44.0008 2.20487C44.9798 2.49131 45.9384 2.8172 46.8763 3.18253V3.17739ZM47.8263 3.56588C50.3536 4.64295 52.7402 6.02534 54.933 7.68233L48.825 10.0622L47.8263 3.56588ZM65.7059 21.4827L59.2129 20.4819L61.5878 14.3613C63.2453 16.5597 64.6282 18.953 65.7059 21.4879V21.4827ZM58.1962 20.6749C58.1721 20.736 58.1621 20.8017 58.167 20.8672C58.1719 20.9327 58.1915 20.9963 58.2244 21.0531C58.2573 21.1102 58.3024 21.1593 58.3566 21.1967C58.4108 21.234 58.4727 21.2588 58.5376 21.2692L66.091 22.4321C66.4591 23.3772 66.7851 24.3385 67.0692 25.3162L54.2654 23.3429L58.9536 11.2662C59.657 11.9986 60.3254 12.761 60.9587 13.5534L58.1962 20.6749ZM34.6348 56.2796C28.928 56.2735 23.4566 53.9994 19.4208 49.9562C15.3849 45.9129 13.1143 40.4307 13.1068 34.712C13.1068 28.9905 15.3749 23.5034 19.4122 19.4577C23.4495 15.412 28.9252 13.1392 34.6348 13.1392C40.3443 13.1392 45.8201 15.412 49.8574 19.4577C53.8946 23.5034 56.1628 28.9905 56.1628 34.712C56.1553 40.4307 53.8846 45.9129 49.8488 49.9562C45.813 53.9994 40.3416 56.2735 34.6348 56.2796ZM56.1551 28.4473C55.7353 27.0018 55.1701 25.6027 54.4682 24.2716L65.4415 25.962L56.1551 28.4473ZM50.7942 19.1698L57.5954 12.3494L53.5696 22.7151C52.7653 21.4432 51.8355 20.2555 50.7942 19.1698ZM50.1395 18.524C49.0561 17.4806 47.8709 16.5489 46.6016 15.7429L56.951 11.7087L50.1395 18.524ZM40.8814 13.1418L43.3615 3.83602L45.0483 14.8321C43.72 14.1288 42.3238 13.5624 40.8814 13.1418ZM39.9853 12.9025C38.5272 12.5427 37.0365 12.3315 35.5359 12.2722L42.4809 3.6019L39.9853 12.9025ZM29.2842 12.9025L26.7887 3.6019L33.7208 12.2747C32.2246 12.3341 30.7383 12.5444 29.2842 12.9025ZM28.3882 13.1418C26.9462 13.5627 25.5501 14.1281 24.2212 14.8295L25.908 3.83602L28.3882 13.1418ZM19.13 18.524L12.3237 11.6984L22.6679 15.7326C21.3982 16.5418 20.2129 17.477 19.13 18.524ZM18.4856 19.1698C17.4407 20.255 16.5075 21.4427 15.6999 22.7151L11.6742 12.3494L18.4856 19.1698ZM13.1145 28.4473L3.82805 25.962L14.8013 24.2716C14.0995 25.6027 13.5343 27.0018 13.1145 28.4473ZM12.8757 29.3452C12.5167 30.8063 12.3059 32.3001 12.2467 33.8038L3.59442 26.8444L12.8757 29.3452ZM12.2467 35.6099C12.3059 37.1135 12.5167 38.6073 12.8757 40.0685L3.59442 42.5693L12.2467 35.6099ZM13.1145 40.9664C13.5343 42.4119 14.0995 43.811 14.8013 45.142L3.82805 43.4517L13.1145 40.9664ZM18.4856 50.2439L11.6742 57.0695L15.6999 46.6986C16.5075 47.9709 17.4407 49.1587 18.4856 50.2439ZM19.1403 50.8999C20.2237 51.9433 21.4089 52.8751 22.6782 53.6811L12.3237 57.7152L19.1403 50.8999ZM28.3985 56.2719L25.9183 65.5777L24.2315 54.5816C25.5565 55.2842 26.9492 55.8506 28.3882 56.2719H28.3985ZM29.2945 56.5112C30.7526 56.8709 32.2433 57.0821 33.7439 57.1415L26.8118 65.8144L29.2945 56.5112ZM39.9956 56.5112L42.4911 65.8144L35.5359 57.1415C37.0365 57.0821 38.5272 56.8709 39.9853 56.5112H39.9956ZM40.8916 56.2719C42.3341 55.8512 43.7303 55.2849 45.0586 54.5816L43.3718 65.5777L40.8916 56.2719ZM50.1498 50.8999L56.9612 57.7152L46.6119 53.6811C47.8776 52.8745 49.0594 51.9428 50.1395 50.8999H50.1498ZM50.8045 50.2439C51.8458 49.1582 52.7756 47.9705 53.5799 46.6986L57.6057 57.0695L50.8045 50.2439ZM56.1653 40.9664L65.4518 43.4517L54.4785 45.142C55.1768 43.8106 55.7385 42.4115 56.1551 40.9664H56.1653ZM56.4041 40.0685C56.7631 38.6073 56.9739 37.1135 57.0331 35.6099L65.688 42.5693L56.4041 40.0685ZM57.0331 33.8038C56.9739 32.3001 56.7631 30.8063 56.4041 29.3452L65.688 26.8444L57.0331 33.8038ZM67.4158 42.8291L57.3027 34.7068L67.4056 26.5846C67.6469 27.5622 67.8455 28.5562 68.0012 29.5664L62.0371 34.3621C61.986 34.4038 61.9448 34.4564 61.9164 34.516C61.8879 34.5756 61.8731 34.6408 61.8727 34.7068C61.8729 34.7725 61.8877 34.8374 61.9162 34.8966C61.9446 34.9558 61.9859 35.0079 62.0371 35.049L68.0012 39.8447C67.854 40.8566 67.6555 41.8515 67.4056 42.8291H67.4158ZM63.0255 34.7068L68.1604 30.5904C68.495 33.3244 68.495 36.0892 68.1604 38.8233L63.0255 34.7068ZM38.7478 1.13202L34.6399 6.27759L30.532 1.13202C33.2604 0.796692 36.0194 0.796692 38.7478 1.13202ZM30.532 68.2816L34.6399 63.1361L38.7478 68.2816C36.0194 68.617 33.2604 68.617 30.532 68.2816Z" fill="#E8BA77"/>
</g>
<defs>
<clipPath id="clip0_324_8962">
<rect width="70" height="70" fill="white"/>
</clipPath>
</defs>
</svg>
