<svg width="40" height="41" viewBox="0 0 40 41" fill="none" xmlns="http://www.w3.org/2000/svg">
<path d="M36.6667 18.8011V7.46777C36.6667 4.96777 35.6 3.96777 32.95 3.96777H26.2167C23.5667 3.96777 22.5 4.96777 22.5 7.46777V18.8011C22.5 21.3011 23.5667 22.3011 26.2167 22.3011H32.95C35.6 22.3011 36.6667 21.3011 36.6667 18.8011Z" stroke="white" stroke-width="2" stroke-linecap="round" stroke-linejoin="round"/>
<path d="M36.6667 33.8013V30.8013C36.6667 28.3013 35.6 27.3013 32.95 27.3013H26.2167C23.5667 27.3013 22.5 28.3013 22.5 30.8013V33.8013C22.5 36.3013 23.5667 37.3013 26.2167 37.3013H32.95C35.6 37.3013 36.6667 36.3013 36.6667 33.8013Z" stroke="white" stroke-width="2" stroke-linecap="round" stroke-linejoin="round"/>
<path d="M17.5007 22.4678V33.8011C17.5007 36.3011 16.434 37.3011 13.784 37.3011H7.05065C4.40065 37.3011 3.33398 36.3011 3.33398 33.8011V22.4678C3.33398 19.9678 4.40065 18.9678 7.05065 18.9678H13.784C16.434 18.9678 17.5007 19.9678 17.5007 22.4678Z" stroke="white" stroke-width="2" stroke-linecap="round" stroke-linejoin="round"/>
<path d="M17.5007 7.46777V10.4678C17.5007 12.9678 16.434 13.9678 13.784 13.9678H7.05065C4.40065 13.9678 3.33398 12.9678 3.33398 10.4678V7.46777C3.33398 4.96777 4.40065 3.96777 7.05065 3.96777H13.784C16.434 3.96777 17.5007 4.96777 17.5007 7.46777Z" stroke="white" stroke-width="2" stroke-linecap="round" stroke-linejoin="round"/>
</svg>
