<svg width="30" height="22" viewBox="0 0 30 22" fill="none" xmlns="http://www.w3.org/2000/svg">
<path d="M29.3758 4.13385C29.2059 3.52788 28.875 2.97928 28.4183 2.54634C27.9486 2.1001 27.373 1.78089 26.7458 1.61884C24.3983 1.00009 14.9933 1.0001 14.9933 1.0001C11.0724 0.955486 7.15256 1.15169 3.25577 1.58759C2.62851 1.76161 2.05398 2.08795 1.58327 2.5376C1.12077 2.9826 0.785771 3.53135 0.610771 4.1326C0.190388 6.39727 -0.0138635 8.69678 0.000771479 11.0001C-0.0142285 13.3013 0.189521 15.6001 0.610771 17.8676C0.782021 18.4663 1.11577 19.0126 1.57952 19.4538C2.04327 19.8951 2.62077 20.2138 3.25577 20.3826C5.63452 21.0001 14.9933 21.0001 14.9933 21.0001C18.9191 21.0448 22.844 20.8486 26.7458 20.4126C27.373 20.2506 27.9486 19.9313 28.4183 19.4851C28.8749 19.0522 29.2054 18.5036 29.3745 17.8976C29.8059 15.6338 30.0156 13.3333 30.0008 11.0288C30.0332 8.7146 29.8237 6.4033 29.3758 4.1326V4.13385ZM12.0033 15.2801V6.72134L19.8283 11.0013L12.0033 15.2801Z" fill="#E7BA7A"/>
</svg>
